<svg width="255" height="242" viewBox="0 0 255 242" fill="none" xmlns="http://www.w3.org/2000/svg">
<rect width="255" height="242" fill="#E5E5E5"/>
<rect width="254.607" height="242" fill="black"/>
<path fill-rule="evenodd" clip-rule="evenodd" d="M102.768 121L46 160.783V190.732H102.768H203V121H102.768Z" fill="#C4C4C4"/>
<ellipse cx="74.3842" cy="198.072" rx="11.5311" ry="11.9278" fill="#757575"/>
<ellipse cx="173.729" cy="197.155" rx="11.5311" ry="11.9278" fill="#757575"/>
<path d="M27 24.98V33.02H28.22V34.42H27V37H25.34V34.42H19.9V33.24L25.06 24.98H27ZM25.36 26.92L21.72 33.02H25.36V26.92ZM30.638 34.8C31.398 34.8 31.778 35.1133 31.778 35.74V36.32C31.778 36.6133 31.678 36.84 31.478 37C31.2913 37.16 31.0113 37.24 30.638 37.24C30.278 37.24 29.998 37.16 29.798 37C29.6113 36.84 29.518 36.6133 29.518 36.32V35.74C29.518 35.4333 29.6113 35.2 29.798 35.04C29.998 34.88 30.278 34.8 30.638 34.8ZM42.1248 23.66C42.6448 23.66 43.2048 23.7133 43.8048 23.82C44.4182 23.9133 44.7782 23.9667 44.8848 23.98L44.8448 25.48C43.6715 25.2667 42.7648 25.16 42.1248 25.16C41.2182 25.16 40.5648 25.3467 40.1648 25.72C39.7648 26.0933 39.5648 26.7133 39.5648 27.58V33.3C39.5648 34.1667 39.7582 34.7867 40.1448 35.16C40.5448 35.52 41.2048 35.7 42.1248 35.7C42.7648 35.7 43.6715 35.5933 44.8448 35.38L44.8848 36.92C44.7782 36.9333 44.4182 36.9867 43.8048 37.08C43.2048 37.1867 42.6448 37.24 42.1248 37.24C40.5915 37.24 39.4982 36.9133 38.8448 36.26C38.1915 35.6067 37.8648 34.5867 37.8648 33.2V27.7C37.8648 26.3133 38.1915 25.2933 38.8448 24.64C39.4982 23.9867 40.5915 23.66 42.1248 23.66ZM49.0766 28.54C49.8099 27.5133 50.6632 27 51.6366 27C52.4899 27 53.1432 27.2933 53.5966 27.88C54.0632 28.4533 54.2966 29.2733 54.2966 30.34V37H52.5966V30.58C52.5966 29.2467 52.1632 28.58 51.2966 28.58C50.9099 28.58 50.5166 28.7267 50.1166 29.02C49.7166 29.3133 49.3699 29.7133 49.0766 30.22V37H47.3766V23.34H49.0766V28.54ZM60.3255 27C61.5121 27 62.3921 27.32 62.9655 27.96C63.5521 28.5867 63.8455 29.48 63.8455 30.64V33.6C63.8455 34.76 63.5521 35.66 62.9655 36.3C62.3921 36.9267 61.5121 37.24 60.3255 37.24C59.1388 37.24 58.2521 36.9267 57.6655 36.3C57.0921 35.66 56.8055 34.76 56.8055 33.6V30.64C56.8055 29.48 57.0921 28.5867 57.6655 27.96C58.2521 27.32 59.1388 27 60.3255 27ZM60.3255 28.42C59.7521 28.42 59.3055 28.6 58.9855 28.96C58.6655 29.32 58.5055 29.8333 58.5055 30.5V33.74C58.5055 34.4067 58.6655 34.92 58.9855 35.28C59.3055 35.64 59.7521 35.82 60.3255 35.82C60.8988 35.82 61.3455 35.64 61.6655 35.28C61.9855 34.92 62.1455 34.4067 62.1455 33.74V30.48C62.1455 29.8133 61.9855 29.3067 61.6655 28.96C61.3455 28.6 60.8988 28.42 60.3255 28.42ZM69.7591 27C70.9457 27 71.8257 27.32 72.3991 27.96C72.9857 28.5867 73.2791 29.48 73.2791 30.64V33.6C73.2791 34.76 72.9857 35.66 72.3991 36.3C71.8257 36.9267 70.9457 37.24 69.7591 37.24C68.5724 37.24 67.6857 36.9267 67.0991 36.3C66.5257 35.66 66.2391 34.76 66.2391 33.6V30.64C66.2391 29.48 66.5257 28.5867 67.0991 27.96C67.6857 27.32 68.5724 27 69.7591 27ZM69.7591 28.42C69.1857 28.42 68.7391 28.6 68.4191 28.96C68.0991 29.32 67.9391 29.8333 67.9391 30.5V33.74C67.9391 34.4067 68.0991 34.92 68.4191 35.28C68.7391 35.64 69.1857 35.82 69.7591 35.82C70.3324 35.82 70.7791 35.64 71.0991 35.28C71.4191 34.92 71.5791 34.4067 71.5791 33.74V30.48C71.5791 29.8133 71.4191 29.3067 71.0991 28.96C70.7791 28.6 70.3324 28.42 69.7591 28.42ZM78.6727 27C79.2327 27 79.906 27.08 80.6927 27.24L80.6527 28.68C79.9593 28.52 79.326 28.44 78.7527 28.44C77.5527 28.44 76.9527 28.8267 76.9527 29.6V29.78C76.9527 30.02 77.0127 30.2133 77.1327 30.36C77.266 30.5067 77.4993 30.66 77.8327 30.82L79.7127 31.7C80.846 32.2333 81.4127 33.0133 81.4127 34.04V34.48C81.3993 35.4 81.1193 36.0933 80.5727 36.56C80.0393 37.0133 79.1927 37.24 78.0327 37.24C77.4327 37.24 76.5727 37.1 75.4527 36.82L75.5327 35.3C76.5327 35.5933 77.3527 35.74 77.9927 35.74C78.646 35.74 79.0993 35.6533 79.3527 35.48C79.606 35.2933 79.7327 34.9933 79.7327 34.58V34.38C79.7327 34.06 79.666 33.8067 79.5327 33.62C79.4127 33.4333 79.206 33.2733 78.9127 33.14L76.9727 32.28C76.386 32.0133 75.9527 31.6933 75.6727 31.32C75.406 30.9467 75.2727 30.5133 75.2727 30.02V29.74C75.2993 28.8333 75.5793 28.1533 76.1127 27.7C76.6593 27.2333 77.5127 27 78.6727 27ZM86.7094 27C87.8294 27 88.6827 27.3067 89.2694 27.92C89.856 28.5333 90.1494 29.42 90.1494 30.58V32.64H85.0094V33.82C85.0094 34.5 85.1694 34.9933 85.4894 35.3C85.8227 35.5933 86.3427 35.74 87.0494 35.74C87.7427 35.74 88.6094 35.6333 89.6494 35.42L89.6894 36.9C88.4494 37.1267 87.5627 37.24 87.0294 37.24C85.7094 37.24 84.756 36.9533 84.1694 36.38C83.596 35.8067 83.3094 34.92 83.3094 33.72V30.58C83.3094 29.42 83.5894 28.5333 84.1494 27.92C84.7227 27.3067 85.576 27 86.7094 27ZM86.7094 28.42C86.1894 28.42 85.776 28.5867 85.4694 28.92C85.1627 29.24 85.0094 29.7067 85.0094 30.32V31.28H88.4494V30.38C88.4494 29.74 88.2894 29.2533 87.9694 28.92C87.6627 28.5867 87.2427 28.42 86.7094 28.42ZM102.768 37H101.148V35.42C100.348 36.6333 99.4351 37.24 98.4084 37.24C97.5818 37.24 96.9484 36.96 96.5084 36.4C96.0684 35.8267 95.8484 34.9933 95.8484 33.9V30.34C95.8484 29.2867 96.0884 28.4667 96.5684 27.88C97.0618 27.2933 97.7618 27 98.6684 27C99.0551 27 99.4618 27.1 99.8884 27.3C100.315 27.4867 100.708 27.72 101.068 28V23.34H102.768V37ZM99.0484 28.52C98.5684 28.52 98.1951 28.6933 97.9284 29.04C97.6751 29.3733 97.5484 29.8867 97.5484 30.58V33.68C97.5484 35.04 97.9684 35.72 98.8084 35.72C99.2084 35.72 99.6018 35.5667 99.9884 35.26C100.388 34.94 100.748 34.4933 101.068 33.92V29.52C100.788 29.2267 100.455 28.9867 100.068 28.8C99.6951 28.6133 99.3551 28.52 99.0484 28.52ZM108.76 27C109.88 27 110.733 27.3067 111.32 27.92C111.907 28.5333 112.2 29.42 112.2 30.58V32.64H107.06V33.82C107.06 34.5 107.22 34.9933 107.54 35.3C107.873 35.5933 108.393 35.74 109.1 35.74C109.793 35.74 110.66 35.6333 111.7 35.42L111.74 36.9C110.5 37.1267 109.613 37.24 109.08 37.24C107.76 37.24 106.807 36.9533 106.22 36.38C105.647 35.8067 105.36 34.92 105.36 33.72V30.58C105.36 29.42 105.64 28.5333 106.2 27.92C106.773 27.3067 107.627 27 108.76 27ZM108.76 28.42C108.24 28.42 107.827 28.5867 107.52 28.92C107.213 29.24 107.06 29.7067 107.06 30.32V31.28H110.5V30.38C110.5 29.74 110.34 29.2533 110.02 28.92C109.713 28.5867 109.293 28.42 108.76 28.42ZM116.205 23.34V37H114.505V23.34H116.205ZM120.698 27.24V37H118.998V27.24H120.698ZM119.838 23.3C120.198 23.3 120.471 23.38 120.658 23.54C120.858 23.7 120.958 23.9267 120.958 24.22V24.8C120.958 25.0933 120.858 25.32 120.658 25.48C120.471 25.6267 120.198 25.7 119.838 25.7C119.491 25.7 119.218 25.6267 119.018 25.48C118.831 25.32 118.738 25.0933 118.738 24.8V24.22C118.738 23.9267 118.831 23.7 119.018 23.54C119.218 23.38 119.491 23.3 119.838 23.3ZM130.53 27.24L127.51 37H125.29L122.29 27.24H124.09L126.41 35.76L128.73 27.24H130.53ZM135.264 27C136.384 27 137.237 27.3067 137.824 27.92C138.411 28.5333 138.704 29.42 138.704 30.58V32.64H133.564V33.82C133.564 34.5 133.724 34.9933 134.044 35.3C134.377 35.5933 134.897 35.74 135.604 35.74C136.297 35.74 137.164 35.6333 138.204 35.42L138.244 36.9C137.004 37.1267 136.117 37.24 135.584 37.24C134.264 37.24 133.311 36.9533 132.724 36.38C132.151 35.8067 131.864 34.92 131.864 33.72V30.58C131.864 29.42 132.144 28.5333 132.704 27.92C133.277 27.3067 134.131 27 135.264 27ZM135.264 28.42C134.744 28.42 134.331 28.5867 134.024 28.92C133.717 29.24 133.564 29.7067 133.564 30.32V31.28H137.004V30.38C137.004 29.74 136.844 29.2533 136.524 28.92C136.217 28.5867 135.797 28.42 135.264 28.42ZM145.269 27C145.456 27 145.603 27.0133 145.709 27.04V28.96C145.509 28.92 145.249 28.9 144.929 28.9C143.996 28.9 143.256 29.3667 142.709 30.3V37H141.009V27.24H142.609V28.7C142.969 28.1533 143.369 27.7333 143.809 27.44C144.263 27.1467 144.749 27 145.269 27ZM155.024 27.24L150.544 40.7H148.844L150.124 37H149.484L146.704 27.24H148.564L150.664 35.78L153.264 27.24H155.024ZM163.009 27C163.569 27 164.242 27.08 165.029 27.24L164.989 28.68C164.295 28.52 163.662 28.44 163.089 28.44C161.889 28.44 161.289 28.8267 161.289 29.6V29.78C161.289 30.02 161.349 30.2133 161.469 30.36C161.602 30.5067 161.835 30.66 162.169 30.82L164.049 31.7C165.182 32.2333 165.749 33.0133 165.749 34.04V34.48C165.735 35.4 165.455 36.0933 164.909 36.56C164.375 37.0133 163.529 37.24 162.369 37.24C161.769 37.24 160.909 37.1 159.789 36.82L159.869 35.3C160.869 35.5933 161.689 35.74 162.329 35.74C162.982 35.74 163.435 35.6533 163.689 35.48C163.942 35.2933 164.069 34.9933 164.069 34.58V34.38C164.069 34.06 164.002 33.8067 163.869 33.62C163.749 33.4333 163.542 33.2733 163.249 33.14L161.309 32.28C160.722 32.0133 160.289 31.6933 160.009 31.32C159.742 30.9467 159.609 30.5133 159.609 30.02V29.74C159.635 28.8333 159.915 28.1533 160.449 27.7C160.995 27.2333 161.849 27 163.009 27ZM171.045 27C172.165 27 173.019 27.3067 173.605 27.92C174.192 28.5333 174.485 29.42 174.485 30.58V32.64H169.345V33.82C169.345 34.5 169.505 34.9933 169.825 35.3C170.159 35.5933 170.679 35.74 171.385 35.74C172.079 35.74 172.945 35.6333 173.985 35.42L174.025 36.9C172.785 37.1267 171.899 37.24 171.365 37.24C170.045 37.24 169.092 36.9533 168.505 36.38C167.932 35.8067 167.645 34.92 167.645 33.72V30.58C167.645 29.42 167.925 28.5333 168.485 27.92C169.059 27.3067 169.912 27 171.045 27ZM171.045 28.42C170.525 28.42 170.112 28.5867 169.805 28.92C169.499 29.24 169.345 29.7067 169.345 30.32V31.28H172.785V30.38C172.785 29.74 172.625 29.2533 172.305 28.92C171.999 28.5867 171.579 28.42 171.045 28.42ZM181.051 27C181.237 27 181.384 27.0133 181.491 27.04V28.96C181.291 28.92 181.031 28.9 180.711 28.9C179.777 28.9 179.037 29.3667 178.491 30.3V37H176.791V27.24H178.391V28.7C178.751 28.1533 179.151 27.7333 179.591 27.44C180.044 27.1467 180.531 27 181.051 27ZM190.725 27.24L187.705 37H185.485L182.485 27.24H184.285L186.605 35.76L188.925 27.24H190.725ZM194.018 27.24V37H192.318V27.24H194.018ZM193.158 23.3C193.518 23.3 193.791 23.38 193.978 23.54C194.178 23.7 194.278 23.9267 194.278 24.22V24.8C194.278 25.0933 194.178 25.32 193.978 25.48C193.791 25.6267 193.518 25.7 193.158 25.7C192.811 25.7 192.538 25.6267 192.338 25.48C192.151 25.32 192.058 25.0933 192.058 24.8V24.22C192.058 23.9267 192.151 23.7 192.338 23.54C192.538 23.38 192.811 23.3 193.158 23.3ZM200.23 27C200.83 27 201.51 27.0867 202.27 27.26L202.23 28.76C201.457 28.5867 200.79 28.5 200.23 28.5C199.603 28.5 199.123 28.6733 198.79 29.02C198.47 29.3667 198.31 29.86 198.31 30.5V33.72C198.31 34.3867 198.477 34.8933 198.81 35.24C199.157 35.5733 199.63 35.74 200.23 35.74C200.603 35.74 200.93 35.72 201.21 35.68C201.49 35.64 201.83 35.5733 202.23 35.48L202.27 36.98C201.457 37.1533 200.77 37.24 200.21 37.24C197.81 37.24 196.61 36.0267 196.61 33.6V30.64C196.61 28.2133 197.817 27 200.23 27ZM207.803 27C208.923 27 209.776 27.3067 210.363 27.92C210.95 28.5333 211.243 29.42 211.243 30.58V32.64H206.103V33.82C206.103 34.5 206.263 34.9933 206.583 35.3C206.916 35.5933 207.436 35.74 208.143 35.74C208.836 35.74 209.703 35.6333 210.743 35.42L210.783 36.9C209.543 37.1267 208.656 37.24 208.123 37.24C206.803 37.24 205.85 36.9533 205.263 36.38C204.69 35.8067 204.403 34.92 204.403 33.72V30.58C204.403 29.42 204.683 28.5333 205.243 27.92C205.816 27.3067 206.67 27 207.803 27ZM207.803 28.42C207.283 28.42 206.87 28.5867 206.563 28.92C206.256 29.24 206.103 29.7067 206.103 30.32V31.28H209.543V30.38C209.543 29.74 209.383 29.2533 209.063 28.92C208.756 28.5867 208.336 28.42 207.803 28.42ZM216.348 27C216.908 27 217.582 27.08 218.368 27.24L218.328 28.68C217.635 28.52 217.002 28.44 216.428 28.44C215.228 28.44 214.628 28.8267 214.628 29.6V29.78C214.628 30.02 214.688 30.2133 214.808 30.36C214.942 30.5067 215.175 30.66 215.508 30.82L217.388 31.7C218.522 32.2333 219.088 33.0133 219.088 34.04V34.48C219.075 35.4 218.795 36.0933 218.248 36.56C217.715 37.0133 216.868 37.24 215.708 37.24C215.108 37.24 214.248 37.1 213.128 36.82L213.208 35.3C214.208 35.5933 215.028 35.74 215.668 35.74C216.322 35.74 216.775 35.6533 217.028 35.48C217.282 35.2933 217.408 34.9933 217.408 34.58V34.38C217.408 34.06 217.342 33.8067 217.208 33.62C217.088 33.4333 216.882 33.2733 216.588 33.14L214.648 32.28C214.062 32.0133 213.628 31.6933 213.348 31.32C213.082 30.9467 212.948 30.5133 212.948 30.02V29.74C212.975 28.8333 213.255 28.1533 213.788 27.7C214.335 27.2333 215.188 27 216.348 27ZM33.16 48.24L30.9 58H28.76L26.78 49.72L24.78 58H22.64L20.4 48.24H22.2L23.78 56.5L25.68 48.24H27.88L29.76 56.5L31.36 48.24H33.16ZM36.6547 49.54C37.388 48.5133 38.2414 48 39.2147 48C40.068 48 40.7214 48.2933 41.1747 48.88C41.6414 49.4533 41.8747 50.2733 41.8747 51.34V58H40.1747V51.58C40.1747 50.2467 39.7414 49.58 38.8747 49.58C38.488 49.58 38.0947 49.7267 37.6947 50.02C37.2947 50.3133 36.948 50.7133 36.6547 51.22V58H34.9547V44.34H36.6547V49.54ZM47.7836 48C48.9036 48 49.7569 48.3067 50.3436 48.92C50.9303 49.5333 51.2236 50.42 51.2236 51.58V53.64H46.0836V54.82C46.0836 55.5 46.2436 55.9933 46.5636 56.3C46.8969 56.5933 47.4169 56.74 48.1236 56.74C48.8169 56.74 49.6836 56.6333 50.7236 56.42L50.7636 57.9C49.5236 58.1267 48.6369 58.24 48.1036 58.24C46.7836 58.24 45.8303 57.9533 45.2436 57.38C44.6703 56.8067 44.3836 55.92 44.3836 54.72V51.58C44.3836 50.42 44.6636 49.5333 45.2236 48.92C45.7969 48.3067 46.6503 48 47.7836 48ZM47.7836 49.42C47.2636 49.42 46.8503 49.5867 46.5436 49.92C46.2369 50.24 46.0836 50.7067 46.0836 51.32V52.28H49.5236V51.38C49.5236 50.74 49.3636 50.2533 49.0436 49.92C48.7369 49.5867 48.3169 49.42 47.7836 49.42ZM57.7889 48C58.6422 48 59.2956 48.2933 59.7489 48.88C60.2156 49.4533 60.4489 50.2733 60.4489 51.34V58H58.7489V51.58C58.7489 50.2467 58.3156 49.58 57.4489 49.58C57.0622 49.58 56.6689 49.7267 56.2689 50.02C55.8689 50.3133 55.5222 50.7133 55.2289 51.22V58H53.5289V48.24H55.1289V49.7C55.4889 49.1533 55.8889 48.7333 56.3289 48.44C56.7822 48.1467 57.2689 48 57.7889 48ZM71.0892 48C71.9292 48 72.5826 48.2867 73.0492 48.86C73.5159 49.4333 73.7492 50.26 73.7492 51.34V54.9C73.7492 55.94 73.4759 56.76 72.9292 57.36C72.3959 57.9467 71.6692 58.24 70.7492 58.24C70.4026 58.24 70.0292 58.1667 69.6292 58.02C69.2426 57.8867 68.8826 57.7267 68.5492 57.54V61.7H66.8492V48.24H68.4492V49.66C69.1826 48.5533 70.0626 48 71.0892 48ZM70.7492 49.52C70.3626 49.52 69.9692 49.6667 69.5692 49.96C69.1826 50.24 68.8426 50.6267 68.5492 51.12V56.02C68.8292 56.2467 69.1359 56.4267 69.4692 56.56C69.8159 56.68 70.1292 56.74 70.4092 56.74C71.5026 56.74 72.0492 56.0467 72.0492 54.66V51.58C72.0492 50.2067 71.6159 49.52 70.7492 49.52ZM79.6614 48C80.8481 48 81.7281 48.32 82.3014 48.96C82.8881 49.5867 83.1814 50.48 83.1814 51.64V54.6C83.1814 55.76 82.8881 56.66 82.3014 57.3C81.7281 57.9267 80.8481 58.24 79.6614 58.24C78.4747 58.24 77.5881 57.9267 77.0014 57.3C76.4281 56.66 76.1414 55.76 76.1414 54.6V51.64C76.1414 50.48 76.4281 49.5867 77.0014 48.96C77.5881 48.32 78.4747 48 79.6614 48ZM79.6614 49.42C79.0881 49.42 78.6414 49.6 78.3214 49.96C78.0014 50.32 77.8414 50.8333 77.8414 51.5V54.74C77.8414 55.4067 78.0014 55.92 78.3214 56.28C78.6414 56.64 79.0881 56.82 79.6614 56.82C80.2347 56.82 80.6814 56.64 81.0014 56.28C81.3214 55.92 81.4814 55.4067 81.4814 54.74V51.48C81.4814 50.8133 81.3214 50.3067 81.0014 49.96C80.6814 49.6 80.2347 49.42 79.6614 49.42ZM88.575 48C89.135 48 89.8083 48.08 90.595 48.24L90.555 49.68C89.8617 49.52 89.2283 49.44 88.655 49.44C87.455 49.44 86.855 49.8267 86.855 50.6V50.78C86.855 51.02 86.915 51.2133 87.035 51.36C87.1683 51.5067 87.4017 51.66 87.735 51.82L89.615 52.7C90.7483 53.2333 91.315 54.0133 91.315 55.04V55.48C91.3017 56.4 91.0217 57.0933 90.475 57.56C89.9417 58.0133 89.095 58.24 87.935 58.24C87.335 58.24 86.475 58.1 85.355 57.82L85.435 56.3C86.435 56.5933 87.255 56.74 87.895 56.74C88.5483 56.74 89.0017 56.6533 89.255 56.48C89.5083 56.2933 89.635 55.9933 89.635 55.58V55.38C89.635 55.06 89.5683 54.8067 89.435 54.62C89.315 54.4333 89.1083 54.2733 88.815 54.14L86.875 53.28C86.2883 53.0133 85.855 52.6933 85.575 52.32C85.3083 51.9467 85.175 51.5133 85.175 51.02V50.74C85.2017 49.8333 85.4817 49.1533 86.015 48.7C86.5617 48.2333 87.415 48 88.575 48ZM96.075 48C96.635 48 97.3083 48.08 98.095 48.24L98.055 49.68C97.3617 49.52 96.7283 49.44 96.155 49.44C94.955 49.44 94.355 49.8267 94.355 50.6V50.78C94.355 51.02 94.415 51.2133 94.535 51.36C94.6683 51.5067 94.9017 51.66 95.235 51.82L97.115 52.7C98.2483 53.2333 98.815 54.0133 98.815 55.04V55.48C98.8017 56.4 98.5217 57.0933 97.975 57.56C97.4417 58.0133 96.595 58.24 95.435 58.24C94.835 58.24 93.975 58.1 92.855 57.82L92.935 56.3C93.935 56.5933 94.755 56.74 95.395 56.74C96.0483 56.74 96.5017 56.6533 96.755 56.48C97.0083 56.2933 97.135 55.9933 97.135 55.58V55.38C97.135 55.06 97.0683 54.8067 96.935 54.62C96.815 54.4333 96.6083 54.2733 96.315 54.14L94.375 53.28C93.7883 53.0133 93.355 52.6933 93.075 52.32C92.8083 51.9467 92.675 51.5133 92.675 51.02V50.74C92.7017 49.8333 92.9817 49.1533 93.515 48.7C94.0617 48.2333 94.915 48 96.075 48ZM102.709 48.24V58H101.009V48.24H102.709ZM101.849 44.3C102.209 44.3 102.483 44.38 102.669 44.54C102.869 44.7 102.969 44.9267 102.969 45.22V45.8C102.969 46.0933 102.869 46.32 102.669 46.48C102.483 46.6267 102.209 46.7 101.849 46.7C101.503 46.7 101.229 46.6267 101.029 46.48C100.843 46.32 100.749 46.0933 100.749 45.8V45.22C100.749 44.9267 100.843 44.7 101.029 44.54C101.229 44.38 101.503 44.3 101.849 44.3ZM107.102 49.54C107.448 49.0467 107.848 48.6667 108.302 48.4C108.755 48.1333 109.228 48 109.722 48C110.548 48 111.188 48.2933 111.642 48.88C112.095 49.4533 112.322 50.2933 112.322 51.4V54.56C112.322 55.7733 112.035 56.6933 111.462 57.32C110.888 57.9333 110.002 58.24 108.802 58.24C107.628 58.24 106.768 57.94 106.222 57.34C105.675 56.74 105.402 55.8267 105.402 54.6V44.34H107.102V49.54ZM109.322 49.52C108.935 49.52 108.542 49.6667 108.142 49.96C107.742 50.2533 107.395 50.6533 107.102 51.16V54.8C107.102 55.4533 107.248 55.9533 107.542 56.3C107.848 56.6467 108.268 56.82 108.802 56.82C110.015 56.82 110.622 56.1333 110.622 54.76V51.64C110.622 50.2267 110.188 49.52 109.322 49.52ZM116.616 44.34V58H114.916V44.34H116.616ZM122.608 48C123.728 48 124.581 48.3067 125.168 48.92C125.754 49.5333 126.048 50.42 126.048 51.58V53.64H120.908V54.82C120.908 55.5 121.068 55.9933 121.388 56.3C121.721 56.5933 122.241 56.74 122.948 56.74C123.641 56.74 124.508 56.6333 125.548 56.42L125.588 57.9C124.348 58.1267 123.461 58.24 122.928 58.24C121.608 58.24 120.654 57.9533 120.068 57.38C119.494 56.8067 119.208 55.92 119.208 54.72V51.58C119.208 50.42 119.488 49.5333 120.048 48.92C120.621 48.3067 121.474 48 122.608 48ZM122.608 49.42C122.088 49.42 121.674 49.5867 121.368 49.92C121.061 50.24 120.908 50.7067 120.908 51.32V52.28H124.348V51.38C124.348 50.74 124.188 50.2533 123.868 49.92C123.561 49.5867 123.141 49.42 122.608 49.42ZM129.173 55.8C129.933 55.8 130.313 56.1133 130.313 56.74V57.32C130.313 57.6133 130.213 57.84 130.013 58C129.826 58.16 129.546 58.24 129.173 58.24C128.813 58.24 128.533 58.16 128.333 58C128.146 57.84 128.053 57.6133 128.053 57.32V56.74C128.053 56.4333 128.146 56.2 128.333 56.04C128.533 55.88 128.813 55.8 129.173 55.8Z" fill="#42FF00"/>
</svg>
