<svg width="255" height="248" viewBox="0 0 255 248" fill="none" xmlns="http://www.w3.org/2000/svg">
<rect width="255" height="248" fill="#E5E5E5"/>
<rect width="254.607" height="248" fill="black"/>
<path fill-rule="evenodd" clip-rule="evenodd" d="M61.3726 115.909C64.743 114.803 67.2059 111.294 67.2059 107.136C67.2059 102.09 63.5781 98 59.1029 98C54.6278 98 51 102.09 51 107.136C51 111.217 53.3727 114.673 56.6474 115.846C56.2597 117.069 56.0214 118.601 56.0014 120.271C53.5258 120.664 51.3306 121.463 49.6322 122.541C49.1337 121.622 48.1791 121 47.0833 121C45.4725 121 44.1667 122.343 44.1667 124C44.1667 124.89 44.5438 125.69 45.1427 126.24C44.015 127.546 42.9174 129.835 42.2074 132.601C41.4769 135.448 41.3225 138.154 41.6808 140L41.6667 140C40.7462 140 40 140.895 40 142C40 143.038 40.6594 143.892 41.5031 143.99C41.0912 145.361 40.8333 147.322 40.8333 149.5C40.8333 151.945 41.1583 154.116 41.6612 155.486C40.6787 156.29 40 158.009 40 160C40 162.761 41.3058 165 42.9167 165C44.5275 165 45.8333 162.761 45.8333 160C45.8333 158.009 45.1546 156.29 44.1722 155.486C44.6751 154.116 45 151.945 45 149.5C45 146.214 44.4131 143.422 43.5962 142.408C45.225 142.279 47.2474 139.144 48.3444 134.869C48.5195 134.187 48.6615 133.513 48.7713 132.856C49.7437 133.61 50.937 134.258 52.2939 134.766C51.8974 136.567 51.6765 138.571 51.6765 140.682C51.6765 144.433 52.3741 147.844 53.5139 150.384C52.3442 151.244 51.4787 152.401 51.0754 153.719C49.3767 156.085 47.9297 159.814 47.2035 164.168C46.3583 169.236 46.6933 173.928 47.8951 176.852C46.3891 177.372 45.2922 178.972 45.2922 180.866C45.2922 183.18 46.9309 185.056 48.9525 185.056C50.974 185.056 52.6127 183.18 52.6127 180.866C52.6127 180.453 52.5607 180.055 52.4637 179.678C54.9991 178.6 57.5119 174.197 58.7624 168.417C59.9798 174.209 62.4303 178.623 64.9031 179.703C64.8085 180.08 64.7578 180.479 64.7578 180.892C64.7578 183.209 66.3549 185.087 68.3249 185.087C70.295 185.087 71.8921 183.209 71.8921 180.892C71.8921 178.997 70.8236 177.396 69.3564 176.876C70.5277 173.949 70.8542 169.252 70.0305 164.18C69.2277 159.236 67.5209 155.098 65.5775 152.842C65.1098 151.887 64.3884 151.047 63.4861 150.384C64.6259 147.844 65.3235 144.433 65.3235 140.682C65.3235 138.797 65.1474 136.999 64.8277 135.353C66.1582 135.014 67.3784 134.552 68.4473 133.991C68.5106 134.282 68.58 134.575 68.6557 134.869C69.7526 139.144 71.775 142.279 73.4038 142.408C72.5869 143.422 72 146.214 72 149.5C72 151.945 72.3249 154.116 72.8278 155.486C71.8454 156.29 71.1667 158.009 71.1667 160C71.1667 162.761 72.4725 165 74.0833 165C75.6942 165 77 162.761 77 160C77 158.009 76.3213 156.29 75.3388 155.486C75.8417 154.116 76.1667 151.945 76.1667 149.5C76.1667 147.322 75.9088 145.361 75.4969 143.99C76.3406 143.892 77 143.038 77 142C77 140.895 76.2538 140 75.3333 140L75.3193 140C75.6775 138.154 75.5231 135.448 74.7926 132.601C74.3277 130.79 73.6964 129.182 72.9994 127.922C72.9864 127.115 72.7715 126.336 72.3831 125.602C72.6682 125.139 72.8333 124.589 72.8333 124C72.8333 122.343 71.5275 121 69.9167 121C69.1671 121 68.4837 121.291 67.967 121.769C66.2674 120.957 64.2287 120.384 61.9965 120.137C61.9662 118.548 61.7382 117.089 61.3726 115.909ZM44.7137 209.481C45.4095 209.166 46.0959 208.895 46.7596 208.671C45.8571 206.184 45.2922 202.626 45.2922 198.676C45.2922 191.154 47.3406 185.056 49.8675 185.056C52.3944 185.056 54.4429 191.154 54.4429 198.676C54.4429 202.507 53.9115 205.969 53.0561 208.443C53.2065 208.581 53.3165 208.744 53.3815 208.932C53.9397 210.546 50.964 213.408 46.7351 215.326C42.5062 217.243 38.6255 217.489 38.0673 215.875C37.5091 214.261 40.4848 211.398 44.7137 209.481ZM70.4621 208.722C71.1093 208.947 71.7786 209.217 72.4571 209.533C76.5784 211.452 79.4784 214.317 78.9344 215.933C78.3904 217.548 74.6084 217.302 70.4871 215.383C66.3657 213.464 63.4657 210.599 64.0097 208.984C64.0729 208.796 64.1799 208.633 64.326 208.496C63.4922 206.019 62.9742 202.553 62.9742 198.718C62.9742 191.19 64.9705 185.087 67.4332 185.087C69.8958 185.087 71.8921 191.19 71.8921 198.718C71.8921 202.672 71.3416 206.232 70.4621 208.722Z" fill="#C4C4C4"/>
<path fill-rule="evenodd" clip-rule="evenodd" d="M215.373 115.909C218.743 114.803 221.206 111.294 221.206 107.136C221.206 102.09 217.578 98 213.103 98C208.628 98 205 102.09 205 107.136C205 111.217 207.373 114.673 210.647 115.846C210.26 117.069 210.021 118.601 210.001 120.271C207.526 120.664 205.331 121.463 203.632 122.541C203.134 121.622 202.179 121 201.083 121C199.473 121 198.167 122.343 198.167 124C198.167 124.89 198.544 125.69 199.143 126.24C198.015 127.546 196.917 129.835 196.207 132.601C195.477 135.448 195.323 138.154 195.681 140L195.667 140C194.746 140 194 140.895 194 142C194 143.038 194.659 143.892 195.503 143.99C195.091 145.361 194.833 147.322 194.833 149.5C194.833 151.945 195.158 154.116 195.661 155.486C194.679 156.29 194 158.009 194 160C194 162.761 195.306 165 196.917 165C198.527 165 199.833 162.761 199.833 160C199.833 158.009 199.155 156.29 198.172 155.486C198.675 154.116 199 151.945 199 149.5C199 146.214 198.413 143.422 197.596 142.408C199.225 142.279 201.247 139.144 202.344 134.869C202.519 134.187 202.661 133.513 202.771 132.856C203.744 133.61 204.937 134.258 206.294 134.766C205.897 136.567 205.676 138.571 205.676 140.682C205.676 144.433 206.374 147.844 207.514 150.384C206.344 151.244 205.479 152.401 205.075 153.719C203.377 156.085 201.93 159.814 201.204 164.168C200.358 169.236 200.693 173.928 201.895 176.852C200.389 177.372 199.292 178.972 199.292 180.866C199.292 183.18 200.931 185.056 202.952 185.056C204.974 185.056 206.613 183.18 206.613 180.866C206.613 180.453 206.561 180.055 206.464 179.678C208.999 178.6 211.512 174.197 212.762 168.417C213.98 174.209 216.43 178.623 218.903 179.703C218.809 180.08 218.758 180.479 218.758 180.892C218.758 183.209 220.355 185.087 222.325 185.087C224.295 185.087 225.892 183.209 225.892 180.892C225.892 178.997 224.824 177.396 223.356 176.876C224.528 173.949 224.854 169.252 224.031 164.18C223.228 159.236 221.521 155.098 219.577 152.842C219.11 151.887 218.388 151.047 217.486 150.384C218.626 147.844 219.324 144.433 219.324 140.682C219.324 138.797 219.147 136.999 218.828 135.353C220.158 135.014 221.378 134.552 222.447 133.991C222.511 134.282 222.58 134.575 222.656 134.869C223.753 139.144 225.775 142.279 227.404 142.408C226.587 143.422 226 146.214 226 149.5C226 151.945 226.325 154.116 226.828 155.486C225.845 156.29 225.167 158.009 225.167 160C225.167 162.761 226.473 165 228.083 165C229.694 165 231 162.761 231 160C231 158.009 230.321 156.29 229.339 155.486C229.842 154.116 230.167 151.945 230.167 149.5C230.167 147.322 229.909 145.361 229.497 143.99C230.341 143.892 231 143.038 231 142C231 140.895 230.254 140 229.333 140L229.319 140C229.677 138.154 229.523 135.448 228.793 132.601C228.328 130.79 227.696 129.182 226.999 127.922C226.986 127.115 226.771 126.336 226.383 125.602C226.668 125.139 226.833 124.589 226.833 124C226.833 122.343 225.527 121 223.917 121C223.167 121 222.484 121.291 221.967 121.769C220.267 120.957 218.229 120.384 215.997 120.137C215.966 118.548 215.738 117.089 215.373 115.909ZM198.714 209.481C199.41 209.166 200.096 208.895 200.76 208.671C199.857 206.184 199.292 202.626 199.292 198.676C199.292 191.154 201.341 185.056 203.868 185.056C206.394 185.056 208.443 191.154 208.443 198.676C208.443 202.507 207.911 205.969 207.056 208.443C207.206 208.581 207.317 208.744 207.382 208.932C207.94 210.546 204.964 213.408 200.735 215.326C196.506 217.243 192.626 217.489 192.067 215.875C191.509 214.261 194.485 211.398 198.714 209.481ZM224.462 208.722C225.109 208.947 225.779 209.217 226.457 209.533C230.578 211.452 233.478 214.317 232.934 215.933C232.39 217.548 228.608 217.302 224.487 215.383C220.366 213.464 217.466 210.599 218.01 208.984C218.073 208.796 218.18 208.633 218.326 208.496C217.492 206.019 216.974 202.553 216.974 198.718C216.974 191.19 218.971 185.087 221.433 185.087C223.896 185.087 225.892 191.19 225.892 198.718C225.892 202.672 225.342 206.232 224.462 208.722Z" fill="#C4C4C4"/>
<path d="M29.74 18.98V31H28.04V20.62H28L25.34 21.76L25 20.3L28.24 18.98H29.74ZM33.4505 28.8C34.2105 28.8 34.5905 29.1133 34.5905 29.74V30.32C34.5905 30.6133 34.4905 30.84 34.2905 31C34.1038 31.16 33.8238 31.24 33.4505 31.24C33.0905 31.24 32.8105 31.16 32.6105 31C32.4238 30.84 32.3305 30.6133 32.3305 30.32V29.74C32.3305 29.4333 32.4238 29.2 32.6105 29.04C32.8105 28.88 33.0905 28.8 33.4505 28.8ZM49.2573 17.9L44.2373 24.24L49.7773 31H47.5973L42.4773 24.58V31H40.7773V17.9H42.4773V24.22L47.3573 17.9H49.2573ZM53.682 21C54.802 21 55.6554 21.3067 56.242 21.92C56.8287 22.5333 57.122 23.42 57.122 24.58V26.64H51.982V27.82C51.982 28.5 52.142 28.9933 52.462 29.3C52.7954 29.5933 53.3154 29.74 54.022 29.74C54.7154 29.74 55.582 29.6333 56.622 29.42L56.662 30.9C55.422 31.1267 54.5354 31.24 54.002 31.24C52.682 31.24 51.7287 30.9533 51.142 30.38C50.5687 29.8067 50.282 28.92 50.282 27.72V24.58C50.282 23.42 50.562 22.5333 51.122 21.92C51.6954 21.3067 52.5487 21 53.682 21ZM53.682 22.42C53.162 22.42 52.7487 22.5867 52.442 22.92C52.1354 23.24 51.982 23.7067 51.982 24.32V25.28H55.422V24.38C55.422 23.74 55.262 23.2533 54.942 22.92C54.6354 22.5867 54.2154 22.42 53.682 22.42ZM62.5688 21C63.6888 21 64.5421 21.3067 65.1288 21.92C65.7154 22.5333 66.0088 23.42 66.0088 24.58V26.64H60.8688V27.82C60.8688 28.5 61.0288 28.9933 61.3488 29.3C61.6821 29.5933 62.2021 29.74 62.9088 29.74C63.6021 29.74 64.4688 29.6333 65.5088 29.42L65.5488 30.9C64.3088 31.1267 63.4221 31.24 62.8888 31.24C61.5688 31.24 60.6154 30.9533 60.0288 30.38C59.4554 29.8067 59.1688 28.92 59.1688 27.72V24.58C59.1688 23.42 59.4488 22.5333 60.0088 21.92C60.5821 21.3067 61.4354 21 62.5688 21ZM62.5688 22.42C62.0488 22.42 61.6354 22.5867 61.3288 22.92C61.0221 23.24 60.8688 23.7067 60.8688 24.32V25.28H64.3088V24.38C64.3088 23.74 64.1488 23.2533 63.8288 22.92C63.5221 22.5867 63.1021 22.42 62.5688 22.42ZM72.5541 21C73.3941 21 74.0474 21.2867 74.5141 21.86C74.9807 22.4333 75.2141 23.26 75.2141 24.34V27.9C75.2141 28.94 74.9407 29.76 74.3941 30.36C73.8607 30.9467 73.1341 31.24 72.2141 31.24C71.8674 31.24 71.4941 31.1667 71.0941 31.02C70.7074 30.8867 70.3474 30.7267 70.0141 30.54V34.7H68.3141V21.24H69.9141V22.66C70.6474 21.5533 71.5274 21 72.5541 21ZM72.2141 22.52C71.8274 22.52 71.4341 22.6667 71.0341 22.96C70.6474 23.24 70.3074 23.6267 70.0141 24.12V29.02C70.2941 29.2467 70.6007 29.4267 70.9341 29.56C71.2807 29.68 71.5941 29.74 71.8741 29.74C72.9674 29.74 73.5141 29.0467 73.5141 27.66V24.58C73.5141 23.2067 73.0807 22.52 72.2141 22.52ZM84.38 21C85.5267 21 86.36 21.26 86.88 21.78C87.4133 22.2867 87.68 23.1 87.68 24.22V31H86.06V29.44C85.2867 30.64 84.4133 31.24 83.44 31.24C82.6667 31.24 82.0467 30.9733 81.58 30.44C81.1267 29.9067 80.9 29.18 80.9 28.26V27.7C80.9 26.9 81.1733 26.24 81.72 25.72C82.2667 25.1867 83 24.92 83.92 24.92C84.4267 24.92 85.1133 25.0067 85.98 25.18V24.08C85.98 23.5067 85.8467 23.0933 85.58 22.84C85.3267 22.5867 84.9267 22.46 84.38 22.46C83.74 22.46 82.84 22.56 81.68 22.76V21.3C82.9333 21.1 83.8333 21 84.38 21ZM84.34 26.24C83.78 26.24 83.3533 26.3867 83.06 26.68C82.7667 26.9733 82.62 27.3867 82.62 27.92V28.14C82.62 28.6333 82.7333 29.02 82.96 29.3C83.1867 29.58 83.4733 29.72 83.82 29.72C84.18 29.72 84.5467 29.5667 84.92 29.26C85.3067 28.94 85.66 28.4933 85.98 27.92V26.38C85.4733 26.2867 84.9267 26.24 84.34 26.24ZM100.698 31H99.0781V29.42C98.2781 30.6333 97.3648 31.24 96.3381 31.24C95.5115 31.24 94.8781 30.96 94.4381 30.4C93.9981 29.8267 93.7781 28.9933 93.7781 27.9V24.34C93.7781 23.2867 94.0181 22.4667 94.4981 21.88C94.9915 21.2933 95.6915 21 96.5981 21C96.9848 21 97.3915 21.1 97.8181 21.3C98.2448 21.4867 98.6381 21.72 98.9981 22V17.34H100.698V31ZM96.9781 22.52C96.4981 22.52 96.1248 22.6933 95.8581 23.04C95.6048 23.3733 95.4781 23.8867 95.4781 24.58V27.68C95.4781 29.04 95.8981 29.72 96.7381 29.72C97.1381 29.72 97.5315 29.5667 97.9181 29.26C98.3181 28.94 98.6781 28.4933 98.9981 27.92V23.52C98.7181 23.2267 98.3848 22.9867 97.9981 22.8C97.6248 22.6133 97.2848 22.52 96.9781 22.52ZM105.19 21.24V31H103.49V21.24H105.19ZM104.33 17.3C104.69 17.3 104.963 17.38 105.15 17.54C105.35 17.7 105.45 17.9267 105.45 18.22V18.8C105.45 19.0933 105.35 19.32 105.15 19.48C104.963 19.6267 104.69 19.7 104.33 19.7C103.983 19.7 103.71 19.6267 103.51 19.48C103.323 19.32 103.23 19.0933 103.23 18.8V18.22C103.23 17.9267 103.323 17.7 103.51 17.54C103.71 17.38 103.983 17.3 104.33 17.3ZM110.782 21C111.342 21 112.015 21.08 112.802 21.24L112.762 22.68C112.069 22.52 111.435 22.44 110.862 22.44C109.662 22.44 109.062 22.8267 109.062 23.6V23.78C109.062 24.02 109.122 24.2133 109.242 24.36C109.375 24.5067 109.609 24.66 109.942 24.82L111.822 25.7C112.955 26.2333 113.522 27.0133 113.522 28.04V28.48C113.509 29.4 113.229 30.0933 112.682 30.56C112.149 31.0133 111.302 31.24 110.142 31.24C109.542 31.24 108.682 31.1 107.562 30.82L107.642 29.3C108.642 29.5933 109.462 29.74 110.102 29.74C110.755 29.74 111.209 29.6533 111.462 29.48C111.715 29.2933 111.842 28.9933 111.842 28.58V28.38C111.842 28.06 111.775 27.8067 111.642 27.62C111.522 27.4333 111.315 27.2733 111.022 27.14L109.082 26.28C108.495 26.0133 108.062 25.6933 107.782 25.32C107.515 24.9467 107.382 24.5133 107.382 24.02V23.74C107.409 22.8333 107.689 22.1533 108.222 21.7C108.769 21.2333 109.622 21 110.782 21ZM117.619 21.24H120.219V22.64H117.619V28.36C117.619 28.8667 117.719 29.2333 117.919 29.46C118.132 29.6733 118.459 29.78 118.899 29.78C119.459 29.78 120.005 29.7133 120.539 29.58L120.579 31C119.992 31.16 119.459 31.24 118.979 31.24C117.912 31.24 117.132 31.0067 116.639 30.54C116.159 30.06 115.919 29.2867 115.919 28.22V22.64H114.519V21.24H115.919L116.239 18.64H117.619V21.24ZM125.357 21C126.503 21 127.337 21.26 127.857 21.78C128.39 22.2867 128.657 23.1 128.657 24.22V31H127.037V29.44C126.263 30.64 125.39 31.24 124.417 31.24C123.643 31.24 123.023 30.9733 122.557 30.44C122.103 29.9067 121.877 29.18 121.877 28.26V27.7C121.877 26.9 122.15 26.24 122.697 25.72C123.243 25.1867 123.977 24.92 124.897 24.92C125.403 24.92 126.09 25.0067 126.957 25.18V24.08C126.957 23.5067 126.823 23.0933 126.557 22.84C126.303 22.5867 125.903 22.46 125.357 22.46C124.717 22.46 123.817 22.56 122.657 22.76V21.3C123.91 21.1 124.81 21 125.357 21ZM125.317 26.24C124.757 26.24 124.33 26.3867 124.037 26.68C123.743 26.9733 123.597 27.3867 123.597 27.92V28.14C123.597 28.6333 123.71 29.02 123.937 29.3C124.163 29.58 124.45 29.72 124.797 29.72C125.157 29.72 125.523 29.5667 125.897 29.26C126.283 28.94 126.637 28.4933 126.957 27.92V26.38C126.45 26.2867 125.903 26.24 125.317 26.24ZM135.621 21C136.474 21 137.128 21.2933 137.581 21.88C138.048 22.4533 138.281 23.2733 138.281 24.34V31H136.581V24.58C136.581 23.2467 136.148 22.58 135.281 22.58C134.894 22.58 134.501 22.7267 134.101 23.02C133.701 23.3133 133.354 23.7133 133.061 24.22V31H131.361V21.24H132.961V22.7C133.321 22.1533 133.721 21.7333 134.161 21.44C134.614 21.1467 135.101 21 135.621 21ZM144.508 21C145.108 21 145.788 21.0867 146.548 21.26L146.508 22.76C145.734 22.5867 145.068 22.5 144.508 22.5C143.881 22.5 143.401 22.6733 143.068 23.02C142.748 23.3667 142.588 23.86 142.588 24.5V27.72C142.588 28.3867 142.754 28.8933 143.088 29.24C143.434 29.5733 143.908 29.74 144.508 29.74C144.881 29.74 145.208 29.72 145.488 29.68C145.768 29.64 146.108 29.5733 146.508 29.48L146.548 30.98C145.734 31.1533 145.048 31.24 144.488 31.24C142.088 31.24 140.888 30.0267 140.888 27.6V24.64C140.888 22.2133 142.094 21 144.508 21ZM152.08 21C153.2 21 154.054 21.3067 154.64 21.92C155.227 22.5333 155.52 23.42 155.52 24.58V26.64H150.38V27.82C150.38 28.5 150.54 28.9933 150.86 29.3C151.194 29.5933 151.714 29.74 152.42 29.74C153.114 29.74 153.98 29.6333 155.02 29.42L155.06 30.9C153.82 31.1267 152.934 31.24 152.4 31.24C151.08 31.24 150.127 30.9533 149.54 30.38C148.967 29.8067 148.68 28.92 148.68 27.72V24.58C148.68 23.42 148.96 22.5333 149.52 21.92C150.094 21.3067 150.947 21 152.08 21ZM152.08 22.42C151.56 22.42 151.147 22.5867 150.84 22.92C150.534 23.24 150.38 23.7067 150.38 24.32V25.28H153.82V24.38C153.82 23.74 153.66 23.2533 153.34 22.92C153.034 22.5867 152.614 22.42 152.08 22.42ZM164.74 21C165.926 21 166.806 21.32 167.38 21.96C167.966 22.5867 168.26 23.48 168.26 24.64V27.6C168.26 28.76 167.966 29.66 167.38 30.3C166.806 30.9267 165.926 31.24 164.74 31.24C163.553 31.24 162.666 30.9267 162.08 30.3C161.506 29.66 161.22 28.76 161.22 27.6V24.64C161.22 23.48 161.506 22.5867 162.08 21.96C162.666 21.32 163.553 21 164.74 21ZM164.74 22.42C164.166 22.42 163.72 22.6 163.4 22.96C163.08 23.32 162.92 23.8333 162.92 24.5V27.74C162.92 28.4067 163.08 28.92 163.4 29.28C163.72 29.64 164.166 29.82 164.74 29.82C165.313 29.82 165.76 29.64 166.08 29.28C166.4 28.92 166.56 28.4067 166.56 27.74V24.48C166.56 23.8133 166.4 23.3067 166.08 22.96C165.76 22.6 165.313 22.42 164.74 22.42ZM174.453 17.1C174.893 17.1 175.313 17.1467 175.713 17.24V18.6C175.313 18.5333 174.9 18.5 174.473 18.5C174.06 18.5 173.733 18.6333 173.493 18.9C173.266 19.1667 173.153 19.5733 173.153 20.12V21.24H175.153V22.64H173.153V31H171.453V22.64H170.053V21.24H171.453V20.22C171.466 19.18 171.726 18.4 172.233 17.88C172.74 17.36 173.48 17.1 174.453 17.1ZM183.579 21C184.726 21 185.559 21.26 186.079 21.78C186.613 22.2867 186.879 23.1 186.879 24.22V31H185.259V29.44C184.486 30.64 183.613 31.24 182.639 31.24C181.866 31.24 181.246 30.9733 180.779 30.44C180.326 29.9067 180.099 29.18 180.099 28.26V27.7C180.099 26.9 180.373 26.24 180.919 25.72C181.466 25.1867 182.199 24.92 183.119 24.92C183.626 24.92 184.313 25.0067 185.179 25.18V24.08C185.179 23.5067 185.046 23.0933 184.779 22.84C184.526 22.5867 184.126 22.46 183.579 22.46C182.939 22.46 182.039 22.56 180.879 22.76V21.3C182.133 21.1 183.033 21 183.579 21ZM183.539 26.24C182.979 26.24 182.553 26.3867 182.259 26.68C181.966 26.9733 181.819 27.3867 181.819 27.92V28.14C181.819 28.6333 181.933 29.02 182.159 29.3C182.386 29.58 182.673 29.72 183.019 29.72C183.379 29.72 183.746 29.5667 184.119 29.26C184.506 28.94 184.859 28.4933 185.179 27.92V26.38C184.673 26.2867 184.126 26.24 183.539 26.24ZM191.584 21.24H194.184V22.64H191.584V28.36C191.584 28.8667 191.684 29.2333 191.884 29.46C192.097 29.6733 192.424 29.78 192.864 29.78C193.424 29.78 193.97 29.7133 194.504 29.58L194.544 31C193.957 31.16 193.424 31.24 192.944 31.24C191.877 31.24 191.097 31.0067 190.604 30.54C190.124 30.06 189.884 29.2867 189.884 28.22V22.64H188.484V21.24H189.884L190.204 18.64H191.584V21.24ZM201.635 17.34V31H199.935V17.34H201.635ZM207.627 21C208.747 21 209.601 21.3067 210.187 21.92C210.774 22.5333 211.067 23.42 211.067 24.58V26.64H205.927V27.82C205.927 28.5 206.087 28.9933 206.407 29.3C206.741 29.5933 207.261 29.74 207.967 29.74C208.661 29.74 209.527 29.6333 210.567 29.42L210.607 30.9C209.367 31.1267 208.481 31.24 207.947 31.24C206.627 31.24 205.674 30.9533 205.087 30.38C204.514 29.8067 204.227 28.92 204.227 27.72V24.58C204.227 23.42 204.507 22.5333 205.067 21.92C205.641 21.3067 206.494 21 207.627 21ZM207.627 22.42C207.107 22.42 206.694 22.5867 206.387 22.92C206.081 23.24 205.927 23.7067 205.927 24.32V25.28H209.367V24.38C209.367 23.74 209.207 23.2533 208.887 22.92C208.581 22.5867 208.161 22.42 207.627 22.42ZM216.353 21C217.499 21 218.333 21.26 218.853 21.78C219.386 22.2867 219.653 23.1 219.653 24.22V31H218.033V29.44C217.259 30.64 216.386 31.24 215.413 31.24C214.639 31.24 214.019 30.9733 213.553 30.44C213.099 29.9067 212.873 29.18 212.873 28.26V27.7C212.873 26.9 213.146 26.24 213.693 25.72C214.239 25.1867 214.973 24.92 215.893 24.92C216.399 24.92 217.086 25.0067 217.953 25.18V24.08C217.953 23.5067 217.819 23.0933 217.553 22.84C217.299 22.5867 216.899 22.46 216.353 22.46C215.713 22.46 214.813 22.56 213.653 22.76V21.3C214.906 21.1 215.806 21 216.353 21ZM216.313 26.24C215.753 26.24 215.326 26.3867 215.033 26.68C214.739 26.9733 214.593 27.3867 214.593 27.92V28.14C214.593 28.6333 214.706 29.02 214.933 29.3C215.159 29.58 215.446 29.72 215.793 29.72C216.153 29.72 216.519 29.5667 216.893 29.26C217.279 28.94 217.633 28.4933 217.953 27.92V26.38C217.446 26.2867 216.899 26.24 216.313 26.24ZM225.157 21C225.717 21 226.39 21.08 227.177 21.24L227.137 22.68C226.444 22.52 225.81 22.44 225.237 22.44C224.037 22.44 223.437 22.8267 223.437 23.6V23.78C223.437 24.02 223.497 24.2133 223.617 24.36C223.75 24.5067 223.984 24.66 224.317 24.82L226.197 25.7C227.33 26.2333 227.897 27.0133 227.897 28.04V28.48C227.884 29.4 227.604 30.0933 227.057 30.56C226.524 31.0133 225.677 31.24 224.517 31.24C223.917 31.24 223.057 31.1 221.937 30.82L222.017 29.3C223.017 29.5933 223.837 29.74 224.477 29.74C225.13 29.74 225.584 29.6533 225.837 29.48C226.09 29.2933 226.217 28.9933 226.217 28.58V28.38C226.217 28.06 226.15 27.8067 226.017 27.62C225.897 27.4333 225.69 27.2733 225.397 27.14L223.457 26.28C222.87 26.0133 222.437 25.6933 222.157 25.32C221.89 24.9467 221.757 24.5133 221.757 24.02V23.74C221.784 22.8333 222.064 22.1533 222.597 21.7C223.144 21.2333 223.997 21 225.157 21ZM231.994 21.24H234.594V22.64H231.994V28.36C231.994 28.8667 232.094 29.2333 232.294 29.46C232.507 29.6733 232.834 29.78 233.274 29.78C233.834 29.78 234.38 29.7133 234.914 29.58L234.954 31C234.367 31.16 233.834 31.24 233.354 31.24C232.287 31.24 231.507 31.0067 231.014 30.54C230.534 30.06 230.294 29.2867 230.294 28.22V22.64H228.894V21.24H230.294L230.614 18.64H231.994V21.24ZM28.02 39.74C29.3133 39.74 30.2667 40 30.88 40.52C31.4933 41.04 31.8 41.82 31.8 42.86V43.3C31.8 43.9267 31.6933 44.5067 31.48 45.04C31.2667 45.5733 30.82 46.24 30.14 47.04L27.24 50.54H31.94V52H25.2V50.7L29.2 45.64C29.5733 45.1733 29.8133 44.7933 29.92 44.5C30.04 44.1933 30.1 43.8 30.1 43.32V42.96C30.1 42.32 29.9333 41.8667 29.6 41.6C29.28 41.32 28.7533 41.18 28.02 41.18C27.66 41.18 27.2467 41.2267 26.78 41.32C26.3133 41.4 25.8867 41.5 25.5 41.62V40.16C26.5267 39.88 27.3667 39.74 28.02 39.74ZM43.4167 42C44.2701 42 44.9234 42.2933 45.3767 42.88C45.8301 43.4533 46.0567 44.2733 46.0567 45.34V52H44.3567V45.58C44.3567 44.2467 43.9301 43.58 43.0767 43.58C42.7034 43.58 42.3167 43.7267 41.9167 44.02C41.5301 44.3133 41.1901 44.7133 40.8967 45.22V52H39.1967V45.58C39.1967 44.2467 38.7701 43.58 37.9167 43.58C37.5434 43.58 37.1567 43.7267 36.7567 44.02C36.3701 44.3133 36.0301 44.7133 35.7367 45.22V52H34.0367V42.24H35.6367V43.7C35.9834 43.1533 36.3834 42.7333 36.8367 42.44C37.2901 42.1467 37.7634 42 38.2567 42C38.8701 42 39.3834 42.16 39.7967 42.48C40.2101 42.7867 40.5101 43.24 40.6967 43.84C41.0567 43.24 41.4701 42.7867 41.9367 42.48C42.4034 42.16 42.8967 42 43.4167 42ZM56.0547 38.1C56.4947 38.1 56.9147 38.1467 57.3147 38.24V39.6C56.9147 39.5333 56.5014 39.5 56.0747 39.5C55.6614 39.5 55.3347 39.6333 55.0947 39.9C54.868 40.1667 54.7547 40.5733 54.7547 41.12V42.24H56.7547V43.64H54.7547V52H53.0547V43.64H51.6547V42.24H53.0547V41.22C53.068 40.18 53.328 39.4 53.8347 38.88C54.3414 38.36 55.0814 38.1 56.0547 38.1ZM62.867 42C63.0537 42 63.2004 42.0133 63.307 42.04V43.96C63.107 43.92 62.847 43.9 62.527 43.9C61.5937 43.9 60.8537 44.3667 60.307 45.3V52H58.607V42.24H60.207V43.7C60.567 43.1533 60.967 42.7333 61.407 42.44C61.8604 42.1467 62.347 42 62.867 42ZM68.2942 42C69.4809 42 70.3609 42.32 70.9342 42.96C71.5209 43.5867 71.8142 44.48 71.8142 45.64V48.6C71.8142 49.76 71.5209 50.66 70.9342 51.3C70.3609 51.9267 69.4809 52.24 68.2942 52.24C67.1076 52.24 66.2209 51.9267 65.6342 51.3C65.0609 50.66 64.7742 49.76 64.7742 48.6V45.64C64.7742 44.48 65.0609 43.5867 65.6342 42.96C66.2209 42.32 67.1076 42 68.2942 42ZM68.2942 43.42C67.7209 43.42 67.2742 43.6 66.9542 43.96C66.6342 44.32 66.4742 44.8333 66.4742 45.5V48.74C66.4742 49.4067 66.6342 49.92 66.9542 50.28C67.2742 50.64 67.7209 50.82 68.2942 50.82C68.8676 50.82 69.3142 50.64 69.6342 50.28C69.9542 49.92 70.1142 49.4067 70.1142 48.74V45.48C70.1142 44.8133 69.9542 44.3067 69.6342 43.96C69.3142 43.6 68.8676 43.42 68.2942 43.42ZM83.7878 42C84.6411 42 85.2945 42.2933 85.7478 42.88C86.2011 43.4533 86.4278 44.2733 86.4278 45.34V52H84.7278V45.58C84.7278 44.2467 84.3011 43.58 83.4478 43.58C83.0745 43.58 82.6878 43.7267 82.2878 44.02C81.9011 44.3133 81.5611 44.7133 81.2678 45.22V52H79.5678V45.58C79.5678 44.2467 79.1411 43.58 78.2878 43.58C77.9145 43.58 77.5278 43.7267 77.1278 44.02C76.7411 44.3133 76.4011 44.7133 76.1078 45.22V52H74.4078V42.24H76.0078V43.7C76.3545 43.1533 76.7545 42.7333 77.2078 42.44C77.6611 42.1467 78.1345 42 78.6278 42C79.2411 42 79.7545 42.16 80.1678 42.48C80.5811 42.7867 80.8811 43.24 81.0678 43.84C81.4278 43.24 81.8411 42.7867 82.3078 42.48C82.7745 42.16 83.2678 42 83.7878 42ZM96.1458 42C97.3324 42 98.2124 42.32 98.7858 42.96C99.3724 43.5867 99.6658 44.48 99.6658 45.64V48.6C99.6658 49.76 99.3724 50.66 98.7858 51.3C98.2124 51.9267 97.3324 52.24 96.1458 52.24C94.9591 52.24 94.0724 51.9267 93.4858 51.3C92.9124 50.66 92.6258 49.76 92.6258 48.6V45.64C92.6258 44.48 92.9124 43.5867 93.4858 42.96C94.0724 42.32 94.9591 42 96.1458 42ZM96.1458 43.42C95.5724 43.42 95.1258 43.6 94.8058 43.96C94.4858 44.32 94.3258 44.8333 94.3258 45.5V48.74C94.3258 49.4067 94.4858 49.92 94.8058 50.28C95.1258 50.64 95.5724 50.82 96.1458 50.82C96.7191 50.82 97.1658 50.64 97.4858 50.28C97.8058 49.92 97.9658 49.4067 97.9658 48.74V45.48C97.9658 44.8133 97.8058 44.3067 97.4858 43.96C97.1658 43.6 96.7191 43.42 96.1458 43.42ZM104.318 42.24H106.918V43.64H104.318V49.36C104.318 49.8667 104.418 50.2333 104.618 50.46C104.831 50.6733 105.158 50.78 105.598 50.78C106.158 50.78 106.705 50.7133 107.238 50.58L107.278 52C106.691 52.16 106.158 52.24 105.678 52.24C104.611 52.24 103.831 52.0067 103.338 51.54C102.858 51.06 102.618 50.2867 102.618 49.22V43.64H101.218V42.24H102.618L102.938 39.64H104.318V42.24ZM110.776 43.54C111.509 42.5133 112.362 42 113.336 42C114.189 42 114.842 42.2933 115.296 42.88C115.762 43.4533 115.996 44.2733 115.996 45.34V52H114.296V45.58C114.296 44.2467 113.862 43.58 112.996 43.58C112.609 43.58 112.216 43.7267 111.816 44.02C111.416 44.3133 111.069 44.7133 110.776 45.22V52H109.076V38.34H110.776V43.54ZM121.905 42C123.025 42 123.878 42.3067 124.465 42.92C125.051 43.5333 125.345 44.42 125.345 45.58V47.64H120.205V48.82C120.205 49.5 120.365 49.9933 120.685 50.3C121.018 50.5933 121.538 50.74 122.245 50.74C122.938 50.74 123.805 50.6333 124.845 50.42L124.885 51.9C123.645 52.1267 122.758 52.24 122.225 52.24C120.905 52.24 119.951 51.9533 119.365 51.38C118.791 50.8067 118.505 49.92 118.505 48.72V45.58C118.505 44.42 118.785 43.5333 119.345 42.92C119.918 42.3067 120.771 42 121.905 42ZM121.905 43.42C121.385 43.42 120.971 43.5867 120.665 43.92C120.358 44.24 120.205 44.7067 120.205 45.32V46.28H123.645V45.38C123.645 44.74 123.485 44.2533 123.165 43.92C122.858 43.5867 122.438 43.42 121.905 43.42ZM131.91 42C132.097 42 132.243 42.0133 132.35 42.04V43.96C132.15 43.92 131.89 43.9 131.57 43.9C130.637 43.9 129.897 44.3667 129.35 45.3V52H127.65V42.24H129.25V43.7C129.61 43.1533 130.01 42.7333 130.45 42.44C130.903 42.1467 131.39 42 131.91 42ZM141.988 42C142.828 42 143.481 42.2867 143.948 42.86C144.414 43.4333 144.648 44.26 144.648 45.34V48.9C144.648 49.94 144.374 50.76 143.828 51.36C143.294 51.9467 142.568 52.24 141.648 52.24C141.301 52.24 140.928 52.1667 140.528 52.02C140.141 51.8867 139.781 51.7267 139.448 51.54V55.7H137.748V42.24H139.348V43.66C140.081 42.5533 140.961 42 141.988 42ZM141.648 43.52C141.261 43.52 140.868 43.6667 140.468 43.96C140.081 44.24 139.741 44.6267 139.448 45.12V50.02C139.728 50.2467 140.034 50.4267 140.368 50.56C140.714 50.68 141.028 50.74 141.308 50.74C142.401 50.74 142.948 50.0467 142.948 48.66V45.58C142.948 44.2067 142.514 43.52 141.648 43.52ZM150.44 42C151.56 42 152.413 42.3067 153 42.92C153.587 43.5333 153.88 44.42 153.88 45.58V47.64H148.74V48.82C148.74 49.5 148.9 49.9933 149.22 50.3C149.553 50.5933 150.073 50.74 150.78 50.74C151.473 50.74 152.34 50.6333 153.38 50.42L153.42 51.9C152.18 52.1267 151.293 52.24 150.76 52.24C149.44 52.24 148.487 51.9533 147.9 51.38C147.327 50.8067 147.04 49.92 147.04 48.72V45.58C147.04 44.42 147.32 43.5333 147.88 42.92C148.453 42.3067 149.307 42 150.44 42ZM150.44 43.42C149.92 43.42 149.507 43.5867 149.2 43.92C148.893 44.24 148.74 44.7067 148.74 45.32V46.28H152.18V45.38C152.18 44.74 152.02 44.2533 151.7 43.92C151.393 43.5867 150.973 43.42 150.44 43.42ZM159.505 42C160.692 42 161.572 42.32 162.145 42.96C162.732 43.5867 163.025 44.48 163.025 45.64V48.6C163.025 49.76 162.732 50.66 162.145 51.3C161.572 51.9267 160.692 52.24 159.505 52.24C158.318 52.24 157.432 51.9267 156.845 51.3C156.272 50.66 155.985 49.76 155.985 48.6V45.64C155.985 44.48 156.272 43.5867 156.845 42.96C157.432 42.32 158.318 42 159.505 42ZM159.505 43.42C158.932 43.42 158.485 43.6 158.165 43.96C157.845 44.32 157.685 44.8333 157.685 45.5V48.74C157.685 49.4067 157.845 49.92 158.165 50.28C158.485 50.64 158.932 50.82 159.505 50.82C160.078 50.82 160.525 50.64 160.845 50.28C161.165 49.92 161.325 49.4067 161.325 48.74V45.48C161.325 44.8133 161.165 44.3067 160.845 43.96C160.525 43.6 160.078 43.42 159.505 43.42ZM169.859 42C170.699 42 171.352 42.2867 171.819 42.86C172.285 43.4333 172.519 44.26 172.519 45.34V48.9C172.519 49.94 172.245 50.76 171.699 51.36C171.165 51.9467 170.439 52.24 169.519 52.24C169.172 52.24 168.799 52.1667 168.399 52.02C168.012 51.8867 167.652 51.7267 167.319 51.54V55.7H165.619V42.24H167.219V43.66C167.952 42.5533 168.832 42 169.859 42ZM169.519 43.52C169.132 43.52 168.739 43.6667 168.339 43.96C167.952 44.24 167.612 44.6267 167.319 45.12V50.02C167.599 50.2467 167.905 50.4267 168.239 50.56C168.585 50.68 168.899 50.74 169.179 50.74C170.272 50.74 170.819 50.0467 170.819 48.66V45.58C170.819 44.2067 170.385 43.52 169.519 43.52ZM176.811 38.34V52H175.111V38.34H176.811ZM182.803 42C183.923 42 184.776 42.3067 185.363 42.92C185.95 43.5333 186.243 44.42 186.243 45.58V47.64H181.103V48.82C181.103 49.5 181.263 49.9933 181.583 50.3C181.916 50.5933 182.436 50.74 183.143 50.74C183.836 50.74 184.703 50.6333 185.743 50.42L185.783 51.9C184.543 52.1267 183.656 52.24 183.123 52.24C181.803 52.24 180.85 51.9533 180.263 51.38C179.69 50.8067 179.403 49.92 179.403 48.72V45.58C179.403 44.42 179.683 43.5333 180.243 42.92C180.816 42.3067 181.67 42 182.803 42ZM182.803 43.42C182.283 43.42 181.87 43.5867 181.563 43.92C181.256 44.24 181.103 44.7067 181.103 45.32V46.28H184.543V45.38C184.543 44.74 184.383 44.2533 184.063 43.92C183.756 43.5867 183.336 43.42 182.803 43.42ZM189.368 49.8C190.128 49.8 190.508 50.1133 190.508 50.74V51.32C190.508 51.6133 190.408 51.84 190.208 52C190.022 52.16 189.742 52.24 189.368 52.24C189.008 52.24 188.728 52.16 188.528 52C188.342 51.84 188.248 51.6133 188.248 51.32V50.74C188.248 50.4333 188.342 50.2 188.528 50.04C188.728 49.88 189.008 49.8 189.368 49.8Z" fill="#42FF00"/>
</svg>
