<svg width="255" height="242" viewBox="0 0 255 242" fill="none" xmlns="http://www.w3.org/2000/svg">
<rect width="255" height="242" fill="#E5E5E5"/>
<rect width="254.607" height="242" fill="black"/>
<path fill-rule="evenodd" clip-rule="evenodd" d="M56.7253 137.3C59.1406 136.175 62.2749 132.272 64.6277 127.153C67.7187 120.429 68.2901 114.155 65.9041 113.14C63.518 112.124 59.0781 116.753 55.9871 123.477C53.4745 128.943 52.6268 134.111 53.679 136.4C50.9044 137.443 48.2176 142.951 47.3407 149.826C46.7083 154.784 47.1678 159.271 48.3844 162.01L41.2 160.664C41.8837 158.724 42.3048 156.246 42.327 153.546C42.3672 148.671 41.0948 144.525 39.2808 142.975C41.1364 141.874 43.3067 138.549 44.723 134.356C46.5836 128.847 46.4382 123.926 44.3981 123.363C42.3581 122.801 39.1959 126.811 37.3353 132.32C35.8229 136.798 35.6359 140.887 36.7147 142.563C34.5588 143.635 32.9087 148.162 32.864 153.579C32.8465 155.708 33.0794 157.699 33.4986 159.395L24.3032 211L49.5185 223.129L64.1472 211.231C67.3802 209.823 70.7949 207.941 74.149 205.647C83.5598 199.211 89.5122 191.568 89.1763 186.944C95.3026 182.606 103.945 173.64 107.053 168.696C109.98 164.039 107.266 164.115 104.059 164.205C102.947 164.236 101.776 164.269 100.76 164.106C102.771 163.343 103.015 163.171 99.3997 163.702C99.7985 163.9 100.26 164.027 100.76 164.106C100.542 164.189 100.303 164.279 100.047 164.375C96.0362 165.881 87.6127 169.044 84.9285 173.314C83.08 176.254 81.8757 179.209 81.3555 181.784L79.7005 170.272C82.5693 169.52 86.4613 165.762 89.4557 160.542C92.1707 155.809 93.4234 151.138 92.9704 148.296C95.5186 147.434 99.0391 144.737 102.227 140.987C106.913 135.475 109.107 129.775 107.127 128.255C105.147 126.734 99.7434 129.97 95.0576 135.482C91.8591 139.244 89.8218 143.094 89.4804 145.643C86.597 146.288 82.6109 150.091 79.5579 155.413C76.9913 159.888 75.7315 164.307 75.9842 167.178L68.8976 165.851C70.6699 163.624 72.3762 160.767 73.7741 157.521C76.6194 150.915 77.3591 144.626 75.9448 141.46C78.7654 139.924 82.2911 135.513 84.9685 129.813C88.6566 121.96 89.3384 114.634 86.4915 113.448C83.6445 112.263 78.3468 117.667 74.6587 125.52C71.9933 131.195 70.8981 136.595 71.5702 139.601C68.1701 140.792 63.9134 145.873 60.9977 152.642C59.2441 156.713 58.2903 160.664 58.1477 163.838L54.419 163.14C56.4251 160.857 58.142 156.415 58.8097 151.18C59.599 144.993 58.6873 139.538 56.7253 137.3Z" fill="#C4C4C4"/>
<rect x="140.303" y="94" width="49" height="72" fill="#C4C4C4"/>
<rect x="164.303" y="123" width="49" height="72" fill="#757575"/>
<rect x="181.303" y="151" width="49" height="72" fill="#C4C4C4"/>
<path fill-rule="evenodd" clip-rule="evenodd" d="M90.4415 148.197L82.7169 141L66.0345 159.072L47.396 142.023L40.3032 149.849L58.8702 166.833L42.3384 184.742L50.063 191.939L66.6606 173.959L84.2104 190.013L91.3032 182.187L73.8248 166.198L90.4415 148.197Z" fill="#BE0707"/>
<path d="M27.4632 26.38H22.9432V30.28C23.7032 29.6667 24.6099 29.36 25.6632 29.36C26.5832 29.36 27.2699 29.6333 27.7232 30.18C28.1899 30.7133 28.4232 31.5733 28.4232 32.76V33.48C28.4232 35.9867 27.1232 37.24 24.5232 37.24C24.0566 37.24 23.5432 37.1933 22.9832 37.1C22.4232 37.02 21.9299 36.92 21.5032 36.8V35.42C21.8899 35.5 22.4032 35.5867 23.0432 35.68C23.6832 35.76 24.1632 35.8 24.4832 35.8C25.2166 35.8 25.7699 35.6067 26.1432 35.22C26.5299 34.82 26.7232 34.24 26.7232 33.48V32.7C26.7232 31.42 26.2299 30.78 25.2432 30.78C24.7099 30.78 24.2366 30.88 23.8232 31.08C23.4232 31.28 23.0166 31.6133 22.6032 32.08H21.3032V24.92H27.4632V26.38ZM31.156 34.8C31.916 34.8 32.296 35.1133 32.296 35.74V36.32C32.296 36.6133 32.196 36.84 31.996 37C31.8094 37.16 31.5294 37.24 31.156 37.24C30.796 37.24 30.516 37.16 30.316 37C30.1294 36.84 30.036 36.6133 30.036 36.32V35.74C30.036 35.4333 30.1294 35.2 30.316 35.04C30.516 34.88 30.796 34.8 31.156 34.8ZM42.1429 23.66C43.7296 23.66 44.9496 24.1133 45.8029 25.02C46.6696 25.9133 47.1029 27.2067 47.1029 28.9V32.18C47.1029 33.8067 46.6696 35.06 45.8029 35.94C44.9496 36.8067 43.6962 37.24 42.0429 37.24C40.9096 37.24 39.7229 37.2 38.4829 37.12V23.74C39.6829 23.6867 40.9029 23.66 42.1429 23.66ZM42.0429 25.1C41.6296 25.1 41.0096 25.1133 40.1829 25.14V35.66C40.9696 35.74 41.5896 35.78 42.0429 35.78C43.0696 35.78 43.8829 35.4867 44.4829 34.9C45.0962 34.3 45.4029 33.44 45.4029 32.32V28.78C45.4029 27.5667 45.1096 26.6533 44.5229 26.04C43.9362 25.4133 43.1096 25.1 42.0429 25.1ZM53.1287 27C54.3154 27 55.1954 27.32 55.7687 27.96C56.3554 28.5867 56.6487 29.48 56.6487 30.64V33.6C56.6487 34.76 56.3554 35.66 55.7687 36.3C55.1954 36.9267 54.3154 37.24 53.1287 37.24C51.942 37.24 51.0554 36.9267 50.4687 36.3C49.8954 35.66 49.6087 34.76 49.6087 33.6V30.64C49.6087 29.48 49.8954 28.5867 50.4687 27.96C51.0554 27.32 51.942 27 53.1287 27ZM53.1287 28.42C52.5554 28.42 52.1087 28.6 51.7887 28.96C51.4687 29.32 51.3087 29.8333 51.3087 30.5V33.74C51.3087 34.4067 51.4687 34.92 51.7887 35.28C52.1087 35.64 52.5554 35.82 53.1287 35.82C53.702 35.82 54.1487 35.64 54.4687 35.28C54.7887 34.92 54.9487 34.4067 54.9487 33.74V30.48C54.9487 29.8133 54.7887 29.3067 54.4687 28.96C54.1487 28.6 53.702 28.42 53.1287 28.42ZM67.096 27C67.9494 27 68.6027 27.2933 69.056 27.88C69.5227 28.4533 69.756 29.2733 69.756 30.34V37H68.056V30.58C68.056 29.2467 67.6227 28.58 66.756 28.58C66.3694 28.58 65.976 28.7267 65.576 29.02C65.176 29.3133 64.8294 29.7133 64.536 30.22V37H62.836V27.24H64.436V28.7C64.796 28.1533 65.196 27.7333 65.636 27.44C66.0894 27.1467 66.576 27 67.096 27ZM75.8826 27C77.0693 27 77.9493 27.32 78.5226 27.96C79.1093 28.5867 79.4026 29.48 79.4026 30.64V33.6C79.4026 34.76 79.1093 35.66 78.5226 36.3C77.9493 36.9267 77.0693 37.24 75.8826 37.24C74.6959 37.24 73.8093 36.9267 73.2226 36.3C72.6493 35.66 72.3626 34.76 72.3626 33.6V30.64C72.3626 29.48 72.6493 28.5867 73.2226 27.96C73.8093 27.32 74.6959 27 75.8826 27ZM75.8826 28.42C75.3093 28.42 74.8626 28.6 74.5426 28.96C74.2226 29.32 74.0626 29.8333 74.0626 30.5V33.74C74.0626 34.4067 74.2226 34.92 74.5426 35.28C74.8626 35.64 75.3093 35.82 75.8826 35.82C76.4559 35.82 76.9026 35.64 77.2226 35.28C77.5426 34.92 77.7026 34.4067 77.7026 33.74V30.48C77.7026 29.8133 77.5426 29.3067 77.2226 28.96C76.9026 28.6 76.4559 28.42 75.8826 28.42ZM84.0548 27.24H86.6548V28.64H84.0548V34.36C84.0548 34.8667 84.1548 35.2333 84.3548 35.46C84.5681 35.6733 84.8948 35.78 85.3348 35.78C85.8948 35.78 86.4415 35.7133 86.9748 35.58L87.0148 37C86.4281 37.16 85.8948 37.24 85.4148 37.24C84.3481 37.24 83.5681 37.0067 83.0748 36.54C82.5948 36.06 82.3548 35.2867 82.3548 34.22V28.64H80.9548V27.24H82.3548L82.6748 24.64H84.0548V27.24ZM95.2063 27C95.7663 27 96.4397 27.08 97.2263 27.24L97.1863 28.68C96.493 28.52 95.8597 28.44 95.2863 28.44C94.0863 28.44 93.4863 28.8267 93.4863 29.6V29.78C93.4863 30.02 93.5463 30.2133 93.6663 30.36C93.7997 30.5067 94.033 30.66 94.3663 30.82L96.2463 31.7C97.3797 32.2333 97.9463 33.0133 97.9463 34.04V34.48C97.933 35.4 97.653 36.0933 97.1063 36.56C96.573 37.0133 95.7263 37.24 94.5663 37.24C93.9663 37.24 93.1063 37.1 91.9863 36.82L92.0663 35.3C93.0663 35.5933 93.8863 35.74 94.5263 35.74C95.1797 35.74 95.633 35.6533 95.8863 35.48C96.1397 35.2933 96.2663 34.9933 96.2663 34.58V34.38C96.2663 34.06 96.1997 33.8067 96.0663 33.62C95.9463 33.4333 95.7397 33.2733 95.4463 33.14L93.5063 32.28C92.9197 32.0133 92.4863 31.6933 92.2063 31.32C91.9397 30.9467 91.8063 30.5133 91.8063 30.02V29.74C91.833 28.8333 92.113 28.1533 92.6463 27.7C93.193 27.2333 94.0463 27 95.2063 27ZM103.363 27C104.55 27 105.43 27.32 106.003 27.96C106.59 28.5867 106.883 29.48 106.883 30.64V33.6C106.883 34.76 106.59 35.66 106.003 36.3C105.43 36.9267 104.55 37.24 103.363 37.24C102.176 37.24 101.29 36.9267 100.703 36.3C100.13 35.66 99.8431 34.76 99.8431 33.6V30.64C99.8431 29.48 100.13 28.5867 100.703 27.96C101.29 27.32 102.176 27 103.363 27ZM103.363 28.42C102.79 28.42 102.343 28.6 102.023 28.96C101.703 29.32 101.543 29.8333 101.543 30.5V33.74C101.543 34.4067 101.703 34.92 102.023 35.28C102.343 35.64 102.79 35.82 103.363 35.82C103.936 35.82 104.383 35.64 104.703 35.28C105.023 34.92 105.183 34.4067 105.183 33.74V30.48C105.183 29.8133 105.023 29.3067 104.703 28.96C104.383 28.6 103.936 28.42 103.363 28.42ZM113.737 27C113.923 27 114.07 27.0133 114.177 27.04V28.96C113.977 28.92 113.717 28.9 113.397 28.9C112.463 28.9 111.723 29.3667 111.177 30.3V37H109.477V27.24H111.077V28.7C111.437 28.1533 111.837 27.7333 112.277 27.44C112.73 27.1467 113.217 27 113.737 27ZM118.449 27.24H121.049V28.64H118.449V34.36C118.449 34.8667 118.549 35.2333 118.749 35.46C118.963 35.6733 119.289 35.78 119.729 35.78C120.289 35.78 120.836 35.7133 121.369 35.58L121.409 37C120.823 37.16 120.289 37.24 119.809 37.24C118.743 37.24 117.963 37.0067 117.469 36.54C116.989 36.06 116.749 35.2867 116.749 34.22V28.64H115.349V27.24H116.749L117.069 24.64H118.449V27.24ZM128.801 27.24H131.401V28.64H128.801V34.36C128.801 34.8667 128.901 35.2333 129.101 35.46C129.314 35.6733 129.641 35.78 130.081 35.78C130.641 35.78 131.188 35.7133 131.721 35.58L131.761 37C131.174 37.16 130.641 37.24 130.161 37.24C129.094 37.24 128.314 37.0067 127.821 36.54C127.341 36.06 127.101 35.2867 127.101 34.22V28.64H125.701V27.24H127.101L127.421 24.64H128.801V27.24ZM135.259 28.54C135.992 27.5133 136.845 27 137.819 27C138.672 27 139.325 27.2933 139.779 27.88C140.245 28.4533 140.479 29.2733 140.479 30.34V37H138.779V30.58C138.779 29.2467 138.345 28.58 137.479 28.58C137.092 28.58 136.699 28.7267 136.299 29.02C135.899 29.3133 135.552 29.7133 135.259 30.22V37H133.559V23.34H135.259V28.54ZM147.448 27C147.634 27 147.781 27.0133 147.888 27.04V28.96C147.688 28.92 147.428 28.9 147.108 28.9C146.174 28.9 145.434 29.3667 144.888 30.3V37H143.188V27.24H144.788V28.7C145.148 28.1533 145.548 27.7333 145.988 27.44C146.441 27.1467 146.928 27 147.448 27ZM152.875 27C154.061 27 154.941 27.32 155.515 27.96C156.101 28.5867 156.395 29.48 156.395 30.64V33.6C156.395 34.76 156.101 35.66 155.515 36.3C154.941 36.9267 154.061 37.24 152.875 37.24C151.688 37.24 150.801 36.9267 150.215 36.3C149.641 35.66 149.355 34.76 149.355 33.6V30.64C149.355 29.48 149.641 28.5867 150.215 27.96C150.801 27.32 151.688 27 152.875 27ZM152.875 28.42C152.301 28.42 151.855 28.6 151.535 28.96C151.215 29.32 151.055 29.8333 151.055 30.5V33.74C151.055 34.4067 151.215 34.92 151.535 35.28C151.855 35.64 152.301 35.82 152.875 35.82C153.448 35.82 153.895 35.64 154.215 35.28C154.535 34.92 154.695 34.4067 154.695 33.74V30.48C154.695 29.8133 154.535 29.3067 154.215 28.96C153.895 28.6 153.448 28.42 152.875 28.42ZM165.788 37H164.188V35.6C163.828 36.1333 163.428 36.54 162.988 36.82C162.548 37.1 162.082 37.24 161.588 37.24C160.775 37.24 160.135 36.96 159.668 36.4C159.215 35.8267 158.988 34.9933 158.988 33.9V27.24H160.688V33.6C160.688 34.3067 160.795 34.8267 161.008 35.16C161.235 35.4933 161.542 35.66 161.928 35.66C162.288 35.66 162.662 35.52 163.048 35.24C163.448 34.9467 163.795 34.5467 164.088 34.04V27.24H165.788V37ZM171.798 27C172.384 27 172.918 27.0867 173.398 27.26L176.518 27.22V28.72L174.878 28.68C175.104 29.16 175.218 29.66 175.218 30.18V30.62C175.218 31.5933 174.918 32.38 174.318 32.98C173.718 33.5667 172.878 33.86 171.798 33.86C171.104 33.86 170.538 33.7933 170.098 33.66C169.804 33.9 169.658 34.1733 169.658 34.48V34.6C169.658 34.8133 169.724 34.9733 169.858 35.08C169.991 35.1733 170.251 35.2333 170.638 35.26L173.618 35.48C174.231 35.5333 174.724 35.7667 175.098 36.18C175.484 36.58 175.678 37.0867 175.678 37.7V38.44C175.678 39.0133 175.564 39.48 175.338 39.84C175.111 40.2 174.691 40.4733 174.078 40.66C173.478 40.8467 172.611 40.94 171.478 40.94C171.051 40.94 170.544 40.8933 169.958 40.8C169.384 40.7067 168.838 40.5867 168.318 40.44L168.378 38.86C169.618 39.2733 170.671 39.48 171.538 39.48C172.258 39.48 172.791 39.4333 173.138 39.34C173.498 39.26 173.731 39.1333 173.838 38.96C173.958 38.7867 174.018 38.5267 174.018 38.18V38.02C174.018 37.7133 173.931 37.4733 173.758 37.3C173.598 37.1267 173.364 37.0333 173.058 37.02L170.058 36.82C169.418 36.78 168.931 36.6 168.598 36.28C168.264 35.96 168.098 35.5267 168.098 34.98V34.58C168.098 34.2867 168.171 34 168.318 33.72C168.478 33.44 168.704 33.1933 168.998 32.98C168.771 32.7267 168.604 32.4067 168.498 32.02C168.404 31.62 168.358 31.1333 168.358 30.56V30.12C168.358 29.1733 168.651 28.42 169.238 27.86C169.824 27.2867 170.678 27 171.798 27ZM171.798 28.42C171.238 28.42 170.804 28.5667 170.498 28.86C170.204 29.14 170.058 29.5467 170.058 30.08V30.74C170.058 31.2333 170.098 31.6 170.178 31.84C170.271 32.0667 170.431 32.2267 170.658 32.32C170.884 32.4 171.224 32.44 171.678 32.44C172.291 32.44 172.751 32.2933 173.058 32C173.364 31.7067 173.518 31.2867 173.518 30.74V30.14C173.518 29.58 173.438 29.0933 173.278 28.68C173.118 28.6133 172.898 28.5533 172.618 28.5C172.351 28.4467 172.078 28.42 171.798 28.42ZM179.809 28.54C180.543 27.5133 181.396 27 182.369 27C183.223 27 183.876 27.2933 184.329 27.88C184.796 28.4533 185.029 29.2733 185.029 30.34V37H183.329V30.58C183.329 29.2467 182.896 28.58 182.029 28.58C181.643 28.58 181.249 28.7267 180.849 29.02C180.449 29.3133 180.103 29.7133 179.809 30.22V37H178.109V23.34H179.809V28.54ZM193.032 27.24V37H191.332V27.24H193.032ZM192.172 23.3C192.532 23.3 192.805 23.38 192.992 23.54C193.192 23.7 193.292 23.9267 193.292 24.22V24.8C193.292 25.0933 193.192 25.32 192.992 25.48C192.805 25.6267 192.532 25.7 192.172 25.7C191.825 25.7 191.552 25.6267 191.352 25.48C191.165 25.32 191.072 25.0933 191.072 24.8V24.22C191.072 23.9267 191.165 23.7 191.352 23.54C191.552 23.38 191.825 23.3 192.172 23.3ZM197.824 27.24H200.424V28.64H197.824V34.36C197.824 34.8667 197.924 35.2333 198.124 35.46C198.338 35.6733 198.664 35.78 199.104 35.78C199.664 35.78 200.211 35.7133 200.744 35.58L200.784 37C200.198 37.16 199.664 37.24 199.184 37.24C198.118 37.24 197.338 37.0067 196.844 36.54C196.364 36.06 196.124 35.2867 196.124 34.22V28.64H194.724V27.24H196.124L196.444 24.64H197.824V27.24ZM205.782 27C206.902 27 207.755 27.3067 208.342 27.92C208.929 28.5333 209.222 29.42 209.222 30.58V32.64H204.082V33.82C204.082 34.5 204.242 34.9933 204.562 35.3C204.895 35.5933 205.415 35.74 206.122 35.74C206.815 35.74 207.682 35.6333 208.722 35.42L208.762 36.9C207.522 37.1267 206.635 37.24 206.102 37.24C204.782 37.24 203.829 36.9533 203.242 36.38C202.669 35.8067 202.382 34.92 202.382 33.72V30.58C202.382 29.42 202.662 28.5333 203.222 27.92C203.795 27.3067 204.649 27 205.782 27ZM205.782 28.42C205.262 28.42 204.849 28.5867 204.542 28.92C204.235 29.24 204.082 29.7067 204.082 30.32V31.28H207.522V30.38C207.522 29.74 207.362 29.2533 207.042 28.92C206.735 28.5867 206.315 28.42 205.782 28.42ZM220.907 27C221.761 27 222.414 27.2933 222.867 27.88C223.321 28.4533 223.547 29.2733 223.547 30.34V37H221.847V30.58C221.847 29.2467 221.421 28.58 220.567 28.58C220.194 28.58 219.807 28.7267 219.407 29.02C219.021 29.3133 218.681 29.7133 218.387 30.22V37H216.687V30.58C216.687 29.2467 216.261 28.58 215.407 28.58C215.034 28.58 214.647 28.7267 214.247 29.02C213.861 29.3133 213.521 29.7133 213.227 30.22V37H211.527V27.24H213.127V28.7C213.474 28.1533 213.874 27.7333 214.327 27.44C214.781 27.1467 215.254 27 215.747 27C216.361 27 216.874 27.16 217.287 27.48C217.701 27.7867 218.001 28.24 218.187 28.84C218.547 28.24 218.961 27.7867 219.427 27.48C219.894 27.16 220.387 27 220.907 27ZM229.152 27C229.712 27 230.385 27.08 231.172 27.24L231.132 28.68C230.438 28.52 229.805 28.44 229.232 28.44C228.032 28.44 227.432 28.8267 227.432 29.6V29.78C227.432 30.02 227.492 30.2133 227.612 30.36C227.745 30.5067 227.978 30.66 228.312 30.82L230.192 31.7C231.325 32.2333 231.892 33.0133 231.892 34.04V34.48C231.878 35.4 231.598 36.0933 231.052 36.56C230.518 37.0133 229.672 37.24 228.512 37.24C227.912 37.24 227.052 37.1 225.932 36.82L226.012 35.3C227.012 35.5933 227.832 35.74 228.472 35.74C229.125 35.74 229.578 35.6533 229.832 35.48C230.085 35.2933 230.212 34.9933 230.212 34.58V34.38C230.212 34.06 230.145 33.8067 230.012 33.62C229.892 33.4333 229.685 33.2733 229.392 33.14L227.452 32.28C226.865 32.0133 226.432 31.6933 226.152 31.32C225.885 30.9467 225.752 30.5133 225.752 30.02V29.74C225.778 28.8333 226.058 28.1533 226.592 27.7C227.138 27.2333 227.992 27 229.152 27ZM33.4632 48.24L31.2032 58H29.0632L27.0832 49.72L25.0832 58H22.9432L20.7032 48.24H22.5032L24.0832 56.5L25.9832 48.24H28.1832L30.0632 56.5L31.6632 48.24H33.4632ZM36.9579 48.24V58H35.2579V48.24H36.9579ZM36.0979 44.3C36.4579 44.3 36.7312 44.38 36.9179 44.54C37.1179 44.7 37.2179 44.9267 37.2179 45.22V45.8C37.2179 46.0933 37.1179 46.32 36.9179 46.48C36.7312 46.6267 36.4579 46.7 36.0979 46.7C35.7512 46.7 35.4779 46.6267 35.2779 46.48C35.0912 46.32 34.9979 46.0933 34.9979 45.8V45.22C34.9979 44.9267 35.0912 44.7 35.2779 44.54C35.4779 44.38 35.7512 44.3 36.0979 44.3ZM41.7501 48.24H44.3501V49.64H41.7501V55.36C41.7501 55.8667 41.8501 56.2333 42.0501 56.46C42.2634 56.6733 42.5901 56.78 43.0301 56.78C43.5901 56.78 44.1368 56.7133 44.6701 56.58L44.7101 58C44.1234 58.16 43.5901 58.24 43.1101 58.24C42.0434 58.24 41.2634 58.0067 40.7701 57.54C40.2901 57.06 40.0501 56.2867 40.0501 55.22V49.64H38.6501V48.24H40.0501L40.3701 45.64H41.7501V48.24ZM48.2079 49.54C48.9412 48.5133 49.7946 48 50.7679 48C51.6212 48 52.2746 48.2933 52.7279 48.88C53.1946 49.4533 53.4279 50.2733 53.4279 51.34V58H51.7279V51.58C51.7279 50.2467 51.2946 49.58 50.4279 49.58C50.0412 49.58 49.6479 49.7267 49.2479 50.02C48.8479 50.3133 48.5012 50.7133 48.2079 51.22V58H46.5079V44.34H48.2079V49.54ZM66.8506 48.24L62.3706 61.7H60.6706L61.9506 58H61.3106L58.5306 48.24H60.3906L62.4906 56.78L65.0906 48.24H66.8506ZM71.7029 48C72.8896 48 73.7696 48.32 74.3429 48.96C74.9296 49.5867 75.2229 50.48 75.2229 51.64V54.6C75.2229 55.76 74.9296 56.66 74.3429 57.3C73.7696 57.9267 72.8896 58.24 71.7029 58.24C70.5162 58.24 69.6296 57.9267 69.0429 57.3C68.4696 56.66 68.1829 55.76 68.1829 54.6V51.64C68.1829 50.48 68.4696 49.5867 69.0429 48.96C69.6296 48.32 70.5162 48 71.7029 48ZM71.7029 49.42C71.1296 49.42 70.6829 49.6 70.3629 49.96C70.0429 50.32 69.8829 50.8333 69.8829 51.5V54.74C69.8829 55.4067 70.0429 55.92 70.3629 56.28C70.6829 56.64 71.1296 56.82 71.7029 56.82C72.2762 56.82 72.7229 56.64 73.0429 56.28C73.3629 55.92 73.5229 55.4067 73.5229 54.74V51.48C73.5229 50.8133 73.3629 50.3067 73.0429 49.96C72.7229 49.6 72.2762 49.42 71.7029 49.42ZM84.6165 58H83.0165V56.6C82.6565 57.1333 82.2565 57.54 81.8165 57.82C81.3765 58.1 80.9098 58.24 80.4165 58.24C79.6032 58.24 78.9632 57.96 78.4965 57.4C78.0432 56.8267 77.8165 55.9933 77.8165 54.9V48.24H79.5165V54.6C79.5165 55.3067 79.6232 55.8267 79.8365 56.16C80.0632 56.4933 80.3698 56.66 80.7565 56.66C81.1165 56.66 81.4898 56.52 81.8765 56.24C82.2765 55.9467 82.6232 55.5467 82.9165 55.04V48.24H84.6165V58ZM91.6859 48C91.8725 48 92.0192 48.0133 92.1259 48.04V49.96C91.9259 49.92 91.6659 49.9 91.3459 49.9C90.4125 49.9 89.6725 50.3667 89.1259 51.3V58H87.4259V48.24H89.0259V49.7C89.3859 49.1533 89.7859 48.7333 90.2259 48.44C90.6792 48.1467 91.1659 48 91.6859 48ZM99.1235 49.54C99.4702 49.0467 99.8702 48.6667 100.324 48.4C100.777 48.1333 101.25 48 101.744 48C102.57 48 103.21 48.2933 103.664 48.88C104.117 49.4533 104.344 50.2933 104.344 51.4V54.56C104.344 55.7733 104.057 56.6933 103.484 57.32C102.91 57.9333 102.024 58.24 100.824 58.24C99.6502 58.24 98.7902 57.94 98.2435 57.34C97.6969 56.74 97.4235 55.8267 97.4235 54.6V44.34H99.1235V49.54ZM101.344 49.52C100.957 49.52 100.564 49.6667 100.164 49.96C99.7635 50.2533 99.4169 50.6533 99.1235 51.16V54.8C99.1235 55.4533 99.2702 55.9533 99.5635 56.3C99.8702 56.6467 100.29 56.82 100.824 56.82C102.037 56.82 102.644 56.1333 102.644 54.76V51.64C102.644 50.2267 102.21 49.52 101.344 49.52ZM109.859 48C111.006 48 111.839 48.26 112.359 48.78C112.892 49.2867 113.159 50.1 113.159 51.22V58H111.539V56.44C110.766 57.64 109.892 58.24 108.919 58.24C108.146 58.24 107.526 57.9733 107.059 57.44C106.606 56.9067 106.379 56.18 106.379 55.26V54.7C106.379 53.9 106.652 53.24 107.199 52.72C107.746 52.1867 108.479 51.92 109.399 51.92C109.906 51.92 110.592 52.0067 111.459 52.18V51.08C111.459 50.5067 111.326 50.0933 111.059 49.84C110.806 49.5867 110.406 49.46 109.859 49.46C109.219 49.46 108.319 49.56 107.159 49.76V48.3C108.412 48.1 109.312 48 109.859 48ZM109.819 53.24C109.259 53.24 108.832 53.3867 108.539 53.68C108.246 53.9733 108.099 54.3867 108.099 54.92V55.14C108.099 55.6333 108.212 56.02 108.439 56.3C108.666 56.58 108.952 56.72 109.299 56.72C109.659 56.72 110.026 56.5667 110.399 56.26C110.786 55.94 111.139 55.4933 111.459 54.92V53.38C110.952 53.2867 110.406 53.24 109.819 53.24ZM120.123 48C120.31 48 120.457 48.0133 120.563 48.04V49.96C120.363 49.92 120.103 49.9 119.783 49.9C118.85 49.9 118.11 50.3667 117.563 51.3V58H115.863V48.24H117.463V49.7C117.823 49.1533 118.223 48.7333 118.663 48.44C119.117 48.1467 119.603 48 120.123 48ZM125.431 48C126.551 48 127.404 48.3067 127.991 48.92C128.577 49.5333 128.871 50.42 128.871 51.58V53.64H123.731V54.82C123.731 55.5 123.891 55.9933 124.211 56.3C124.544 56.5933 125.064 56.74 125.771 56.74C126.464 56.74 127.331 56.6333 128.371 56.42L128.411 57.9C127.171 58.1267 126.284 58.24 125.751 58.24C124.431 58.24 123.477 57.9533 122.891 57.38C122.317 56.8067 122.031 55.92 122.031 54.72V51.58C122.031 50.42 122.311 49.5333 122.871 48.92C123.444 48.3067 124.297 48 125.431 48ZM125.431 49.42C124.911 49.42 124.497 49.5867 124.191 49.92C123.884 50.24 123.731 50.7067 123.731 51.32V52.28H127.171V51.38C127.171 50.74 127.011 50.2533 126.691 49.92C126.384 49.5867 125.964 49.42 125.431 49.42ZM136.47 49.54C137.203 48.5133 138.056 48 139.03 48C139.883 48 140.536 48.2933 140.99 48.88C141.456 49.4533 141.69 50.2733 141.69 51.34V58H139.99V51.58C139.99 50.2467 139.556 49.58 138.69 49.58C138.303 49.58 137.91 49.7267 137.51 50.02C137.11 50.3133 136.763 50.7133 136.47 51.22V58H134.77V44.34H136.47V49.54ZM147.379 48C148.525 48 149.359 48.26 149.879 48.78C150.412 49.2867 150.679 50.1 150.679 51.22V58H149.059V56.44C148.285 57.64 147.412 58.24 146.439 58.24C145.665 58.24 145.045 57.9733 144.579 57.44C144.125 56.9067 143.899 56.18 143.899 55.26V54.7C143.899 53.9 144.172 53.24 144.719 52.72C145.265 52.1867 145.999 51.92 146.919 51.92C147.425 51.92 148.112 52.0067 148.979 52.18V51.08C148.979 50.5067 148.845 50.0933 148.579 49.84C148.325 49.5867 147.925 49.46 147.379 49.46C146.739 49.46 145.839 49.56 144.679 49.76V48.3C145.932 48.1 146.832 48 147.379 48ZM147.339 53.24C146.779 53.24 146.352 53.3867 146.059 53.68C145.765 53.9733 145.619 54.3867 145.619 54.92V55.14C145.619 55.6333 145.732 56.02 145.959 56.3C146.185 56.58 146.472 56.72 146.819 56.72C147.179 56.72 147.545 56.5667 147.919 56.26C148.305 55.94 148.659 55.4933 148.979 54.92V53.38C148.472 53.2867 147.925 53.24 147.339 53.24ZM157.643 48C158.496 48 159.15 48.2933 159.603 48.88C160.07 49.4533 160.303 50.2733 160.303 51.34V58H158.603V51.58C158.603 50.2467 158.17 49.58 157.303 49.58C156.916 49.58 156.523 49.7267 156.123 50.02C155.723 50.3133 155.376 50.7133 155.083 51.22V58H153.383V48.24H154.983V49.7C155.343 49.1533 155.743 48.7333 156.183 48.44C156.636 48.1467 157.123 48 157.643 48ZM169.829 58H168.209V56.42C167.409 57.6333 166.496 58.24 165.469 58.24C164.643 58.24 164.009 57.96 163.569 57.4C163.129 56.8267 162.909 55.9933 162.909 54.9V51.34C162.909 50.2867 163.149 49.4667 163.629 48.88C164.123 48.2933 164.823 48 165.729 48C166.116 48 166.523 48.1 166.949 48.3C167.376 48.4867 167.769 48.72 168.129 49V44.34H169.829V58ZM166.109 49.52C165.629 49.52 165.256 49.6933 164.989 50.04C164.736 50.3733 164.609 50.8867 164.609 51.58V54.68C164.609 56.04 165.029 56.72 165.869 56.72C166.269 56.72 166.663 56.5667 167.049 56.26C167.449 55.94 167.809 55.4933 168.129 54.92V50.52C167.849 50.2267 167.516 49.9867 167.129 49.8C166.756 49.6133 166.416 49.52 166.109 49.52ZM175.421 48C175.981 48 176.655 48.08 177.441 48.24L177.401 49.68C176.708 49.52 176.075 49.44 175.501 49.44C174.301 49.44 173.701 49.8267 173.701 50.6V50.78C173.701 51.02 173.761 51.2133 173.881 51.36C174.015 51.5067 174.248 51.66 174.581 51.82L176.461 52.7C177.595 53.2333 178.161 54.0133 178.161 55.04V55.48C178.148 56.4 177.868 57.0933 177.321 57.56C176.788 58.0133 175.941 58.24 174.781 58.24C174.181 58.24 173.321 58.1 172.201 57.82L172.281 56.3C173.281 56.5933 174.101 56.74 174.741 56.74C175.395 56.74 175.848 56.6533 176.101 56.48C176.355 56.2933 176.481 55.9933 176.481 55.58V55.38C176.481 55.06 176.415 54.8067 176.281 54.62C176.161 54.4333 175.955 54.2733 175.661 54.14L173.721 53.28C173.135 53.0133 172.701 52.6933 172.421 52.32C172.155 51.9467 172.021 51.5133 172.021 51.02V50.74C172.048 49.8333 172.328 49.1533 172.861 48.7C173.408 48.2333 174.261 48 175.421 48ZM181.078 55.8C181.838 55.8 182.218 56.1133 182.218 56.74V57.32C182.218 57.6133 182.118 57.84 181.918 58C181.731 58.16 181.451 58.24 181.078 58.24C180.718 58.24 180.438 58.16 180.238 58C180.051 57.84 179.958 57.6133 179.958 57.32V56.74C179.958 56.4333 180.051 56.2 180.238 56.04C180.438 55.88 180.718 55.8 181.078 55.8Z" fill="#42FF00"/>
</svg>
