<svg width="255" height="242" viewBox="0 0 255 242" fill="none" xmlns="http://www.w3.org/2000/svg">
<rect width="255" height="242" fill="#E5E5E5"/>
<rect width="254.607" height="242" fill="black"/>
<rect x="84.6066" y="82" width="95" height="135" fill="#C4C4C4"/>
<path fill-rule="evenodd" clip-rule="evenodd" d="M104.628 103.875C106.849 103.875 108.649 102.112 108.649 99.9375C108.649 97.7629 106.849 96 104.628 96C102.407 96 100.607 97.7629 100.607 99.9375C100.607 102.112 102.407 103.875 104.628 103.875ZM116.021 103.875H163.607V98.875H116.021V103.875ZM104.628 159C106.849 159 108.649 157.237 108.649 155.062C108.649 152.888 106.849 151.125 104.628 151.125C102.407 151.125 100.607 152.888 100.607 155.062C100.607 157.237 102.407 159 104.628 159ZM116.021 159H163.607V154H116.021V159ZM108.649 141.281C108.649 143.456 106.849 145.219 104.628 145.219C102.407 145.219 100.607 143.456 100.607 141.281C100.607 139.107 102.407 137.344 104.628 137.344C106.849 137.344 108.649 139.107 108.649 141.281ZM163.607 145.219H116.021V140.219H163.607V145.219ZM104.628 131.438C106.849 131.438 108.649 129.675 108.649 127.5C108.649 125.325 106.849 123.562 104.628 123.562C102.407 123.562 100.607 125.325 100.607 127.5C100.607 129.675 102.407 131.438 104.628 131.438ZM116.021 131.438H163.607V126.438H116.021V131.438ZM108.649 113.719C108.649 115.893 106.849 117.656 104.628 117.656C102.407 117.656 100.607 115.893 100.607 113.719C100.607 111.544 102.407 109.781 104.628 109.781C106.849 109.781 108.649 111.544 108.649 113.719ZM163.607 117.656H116.021V112.656H163.607V117.656Z" fill="#757575"/>
<path d="M27.1466 26.34C25.5066 26.3667 24.3199 26.64 23.5866 27.16C22.8666 27.6667 22.5066 28.4267 22.5066 29.44V30.56C23.4532 29.6667 24.3466 29.22 25.1866 29.22C26.1466 29.22 26.8866 29.52 27.4066 30.12C27.9399 30.7067 28.2066 31.5867 28.2066 32.76V33.54C28.2066 34.7533 27.8866 35.6733 27.2466 36.3C26.6199 36.9267 25.6999 37.24 24.4866 37.24C23.2999 37.24 22.3866 36.9133 21.7466 36.26C21.1199 35.5933 20.8066 34.6533 20.8066 33.44V29.76C20.8066 28.1867 21.3332 26.9867 22.3866 26.16C23.4532 25.3333 25.0399 24.9067 27.1466 24.88V26.34ZM24.8866 30.7C24.2466 30.7 23.4532 31.1333 22.5066 32V33.54C22.5066 35.0467 23.1666 35.8 24.4866 35.8C25.8332 35.8 26.5066 35.08 26.5066 33.64V32.7C26.5066 32.0467 26.3599 31.5533 26.0666 31.22C25.7866 30.8733 25.3932 30.7 24.8866 30.7ZM30.9281 34.8C31.6881 34.8 32.0681 35.1133 32.0681 35.74V36.32C32.0681 36.6133 31.9681 36.84 31.7681 37C31.5815 37.16 31.3015 37.24 30.9281 37.24C30.5681 37.24 30.2881 37.16 30.0881 37C29.9015 36.84 29.8081 36.6133 29.8081 36.32V35.74C29.8081 35.4333 29.9015 35.2 30.0881 35.04C30.2881 34.88 30.5681 34.8 30.9281 34.8ZM46.855 23.9V37H45.155V31H39.955V37H38.255V23.9H39.955V29.48H45.155V23.9H46.855ZM52.7366 27C53.8832 27 54.7166 27.26 55.2366 27.78C55.7699 28.2867 56.0366 29.1 56.0366 30.22V37H54.4166V35.44C53.6432 36.64 52.7699 37.24 51.7966 37.24C51.0232 37.24 50.4032 36.9733 49.9366 36.44C49.4832 35.9067 49.2566 35.18 49.2566 34.26V33.7C49.2566 32.9 49.5299 32.24 50.0766 31.72C50.6232 31.1867 51.3566 30.92 52.2766 30.92C52.7832 30.92 53.4699 31.0067 54.3366 31.18V30.08C54.3366 29.5067 54.2032 29.0933 53.9366 28.84C53.6832 28.5867 53.2832 28.46 52.7366 28.46C52.0966 28.46 51.1966 28.56 50.0366 28.76V27.3C51.2899 27.1 52.1899 27 52.7366 27ZM52.6966 32.24C52.1366 32.24 51.7099 32.3867 51.4166 32.68C51.1232 32.9733 50.9766 33.3867 50.9766 33.92V34.14C50.9766 34.6333 51.0899 35.02 51.3166 35.3C51.5432 35.58 51.8299 35.72 52.1766 35.72C52.5366 35.72 52.9032 35.5667 53.2766 35.26C53.6632 34.94 54.0166 34.4933 54.3366 33.92V32.38C53.8299 32.2867 53.2832 32.24 52.6966 32.24ZM65.7809 27.24L62.7609 37H60.5409L57.5409 27.24H59.3409L61.6609 35.76L63.9809 27.24H65.7809ZM70.5152 27C71.6352 27 72.4885 27.3067 73.0752 27.92C73.6618 28.5333 73.9552 29.42 73.9552 30.58V32.64H68.8152V33.82C68.8152 34.5 68.9752 34.9933 69.2952 35.3C69.6285 35.5933 70.1485 35.74 70.8552 35.74C71.5485 35.74 72.4152 35.6333 73.4552 35.42L73.4952 36.9C72.2552 37.1267 71.3685 37.24 70.8352 37.24C69.5152 37.24 68.5618 36.9533 67.9752 36.38C67.4018 35.8067 67.1152 34.92 67.1152 33.72V30.58C67.1152 29.42 67.3952 28.5333 67.9552 27.92C68.5285 27.3067 69.3818 27 70.5152 27ZM70.5152 28.42C69.9952 28.42 69.5818 28.5867 69.2752 28.92C68.9685 29.24 68.8152 29.7067 68.8152 30.32V31.28H72.2552V30.38C72.2552 29.74 72.0952 29.2533 71.7752 28.92C71.4685 28.5867 71.0485 28.42 70.5152 28.42ZM82.8342 27C83.9809 27 84.8142 27.26 85.3342 27.78C85.8676 28.2867 86.1342 29.1 86.1342 30.22V37H84.5142V35.44C83.7409 36.64 82.8676 37.24 81.8942 37.24C81.1209 37.24 80.5009 36.9733 80.0342 36.44C79.5809 35.9067 79.3542 35.18 79.3542 34.26V33.7C79.3542 32.9 79.6276 32.24 80.1742 31.72C80.7209 31.1867 81.4542 30.92 82.3742 30.92C82.8809 30.92 83.5676 31.0067 84.4342 31.18V30.08C84.4342 29.5067 84.3009 29.0933 84.0342 28.84C83.7809 28.5867 83.3809 28.46 82.8342 28.46C82.1942 28.46 81.2942 28.56 80.1342 28.76V27.3C81.3876 27.1 82.2876 27 82.8342 27ZM82.7942 32.24C82.2342 32.24 81.8076 32.3867 81.5142 32.68C81.2209 32.9733 81.0742 33.3867 81.0742 33.92V34.14C81.0742 34.6333 81.1876 35.02 81.4142 35.3C81.6409 35.58 81.9276 35.72 82.2742 35.72C82.6342 35.72 83.0009 35.5667 83.3742 35.26C83.7609 34.94 84.1142 34.4933 84.4342 33.92V32.38C83.9276 32.2867 83.3809 32.24 82.7942 32.24ZM93.0986 27C93.9519 27 94.6053 27.2933 95.0586 27.88C95.5253 28.4533 95.7586 29.2733 95.7586 30.34V37H94.0586V30.58C94.0586 29.2467 93.6253 28.58 92.7586 28.58C92.3719 28.58 91.9786 28.7267 91.5786 29.02C91.1786 29.3133 90.8319 29.7133 90.5386 30.22V37H88.8386V27.24H90.4386V28.7C90.7986 28.1533 91.1986 27.7333 91.6386 27.44C92.0919 27.1467 92.5786 27 93.0986 27ZM105.479 27C106.666 27 107.546 27.32 108.119 27.96C108.706 28.5867 108.999 29.48 108.999 30.64V33.6C108.999 34.76 108.706 35.66 108.119 36.3C107.546 36.9267 106.666 37.24 105.479 37.24C104.292 37.24 103.406 36.9267 102.819 36.3C102.246 35.66 101.959 34.76 101.959 33.6V30.64C101.959 29.48 102.246 28.5867 102.819 27.96C103.406 27.32 104.292 27 105.479 27ZM105.479 28.42C104.906 28.42 104.459 28.6 104.139 28.96C103.819 29.32 103.659 29.8333 103.659 30.5V33.74C103.659 34.4067 103.819 34.92 104.139 35.28C104.459 35.64 104.906 35.82 105.479 35.82C106.052 35.82 106.499 35.64 106.819 35.28C107.139 34.92 107.299 34.4067 107.299 33.74V30.48C107.299 29.8133 107.139 29.3067 106.819 28.96C106.499 28.6 106.052 28.42 105.479 28.42ZM115.853 27C116.039 27 116.186 27.0133 116.293 27.04V28.96C116.093 28.92 115.833 28.9 115.513 28.9C114.579 28.9 113.839 29.3667 113.293 30.3V37H111.593V27.24H113.193V28.7C113.553 28.1533 113.953 27.7333 114.393 27.44C114.846 27.1467 115.333 27 115.853 27ZM121.199 27C121.785 27 122.319 27.0867 122.799 27.26L125.919 27.22V28.72L124.279 28.68C124.505 29.16 124.619 29.66 124.619 30.18V30.62C124.619 31.5933 124.319 32.38 123.719 32.98C123.119 33.5667 122.279 33.86 121.199 33.86C120.505 33.86 119.939 33.7933 119.499 33.66C119.205 33.9 119.059 34.1733 119.059 34.48V34.6C119.059 34.8133 119.125 34.9733 119.259 35.08C119.392 35.1733 119.652 35.2333 120.039 35.26L123.019 35.48C123.632 35.5333 124.125 35.7667 124.499 36.18C124.885 36.58 125.079 37.0867 125.079 37.7V38.44C125.079 39.0133 124.965 39.48 124.739 39.84C124.512 40.2 124.092 40.4733 123.479 40.66C122.879 40.8467 122.012 40.94 120.879 40.94C120.452 40.94 119.945 40.8933 119.359 40.8C118.785 40.7067 118.239 40.5867 117.719 40.44L117.779 38.86C119.019 39.2733 120.072 39.48 120.939 39.48C121.659 39.48 122.192 39.4333 122.539 39.34C122.899 39.26 123.132 39.1333 123.239 38.96C123.359 38.7867 123.419 38.5267 123.419 38.18V38.02C123.419 37.7133 123.332 37.4733 123.159 37.3C122.999 37.1267 122.765 37.0333 122.459 37.02L119.459 36.82C118.819 36.78 118.332 36.6 117.999 36.28C117.665 35.96 117.499 35.5267 117.499 34.98V34.58C117.499 34.2867 117.572 34 117.719 33.72C117.879 33.44 118.105 33.1933 118.399 32.98C118.172 32.7267 118.005 32.4067 117.899 32.02C117.805 31.62 117.759 31.1333 117.759 30.56V30.12C117.759 29.1733 118.052 28.42 118.639 27.86C119.225 27.2867 120.079 27 121.199 27ZM121.199 28.42C120.639 28.42 120.205 28.5667 119.899 28.86C119.605 29.14 119.459 29.5467 119.459 30.08V30.74C119.459 31.2333 119.499 31.6 119.579 31.84C119.672 32.0667 119.832 32.2267 120.059 32.32C120.285 32.4 120.625 32.44 121.079 32.44C121.692 32.44 122.152 32.2933 122.459 32C122.765 31.7067 122.919 31.2867 122.919 30.74V30.14C122.919 29.58 122.839 29.0933 122.679 28.68C122.519 28.6133 122.299 28.5533 122.019 28.5C121.752 28.4467 121.479 28.42 121.199 28.42ZM130.198 27C131.344 27 132.178 27.26 132.698 27.78C133.231 28.2867 133.498 29.1 133.498 30.22V37H131.878V35.44C131.104 36.64 130.231 37.24 129.258 37.24C128.484 37.24 127.864 36.9733 127.398 36.44C126.944 35.9067 126.718 35.18 126.718 34.26V33.7C126.718 32.9 126.991 32.24 127.538 31.72C128.084 31.1867 128.818 30.92 129.738 30.92C130.244 30.92 130.931 31.0067 131.798 31.18V30.08C131.798 29.5067 131.664 29.0933 131.398 28.84C131.144 28.5867 130.744 28.46 130.198 28.46C129.558 28.46 128.658 28.56 127.498 28.76V27.3C128.751 27.1 129.651 27 130.198 27ZM130.158 32.24C129.598 32.24 129.171 32.3867 128.878 32.68C128.584 32.9733 128.438 33.3867 128.438 33.92V34.14C128.438 34.6333 128.551 35.02 128.778 35.3C129.004 35.58 129.291 35.72 129.638 35.72C129.998 35.72 130.364 35.5667 130.738 35.26C131.124 34.94 131.478 34.4933 131.798 33.92V32.38C131.291 32.2867 130.744 32.24 130.158 32.24ZM140.462 27C141.315 27 141.969 27.2933 142.422 27.88C142.889 28.4533 143.122 29.2733 143.122 30.34V37H141.422V30.58C141.422 29.2467 140.989 28.58 140.122 28.58C139.735 28.58 139.342 28.7267 138.942 29.02C138.542 29.3133 138.195 29.7133 137.902 30.22V37H136.202V27.24H137.802V28.7C138.162 28.1533 138.562 27.7333 139.002 27.44C139.455 27.1467 139.942 27 140.462 27ZM147.628 27.24V37H145.928V27.24H147.628ZM146.768 23.3C147.128 23.3 147.402 23.38 147.588 23.54C147.788 23.7 147.888 23.9267 147.888 24.22V24.8C147.888 25.0933 147.788 25.32 147.588 25.48C147.402 25.6267 147.128 25.7 146.768 25.7C146.422 25.7 146.148 25.6267 145.948 25.48C145.762 25.32 145.668 25.0933 145.668 24.8V24.22C145.668 23.9267 145.762 23.7 145.948 23.54C146.148 23.38 146.422 23.3 146.768 23.3ZM156.241 27.24V28.5L151.721 35.54H156.241V37H149.721V35.74L154.261 28.7H149.821V27.24H156.241ZM161.55 27C162.67 27 163.524 27.3067 164.11 27.92C164.697 28.5333 164.99 29.42 164.99 30.58V32.64H159.85V33.82C159.85 34.5 160.01 34.9933 160.33 35.3C160.664 35.5933 161.184 35.74 161.89 35.74C162.584 35.74 163.45 35.6333 164.49 35.42L164.53 36.9C163.29 37.1267 162.404 37.24 161.87 37.24C160.55 37.24 159.597 36.9533 159.01 36.38C158.437 35.8067 158.15 34.92 158.15 33.72V30.58C158.15 29.42 158.43 28.5333 158.99 27.92C159.564 27.3067 160.417 27 161.55 27ZM161.55 28.42C161.03 28.42 160.617 28.5867 160.31 28.92C160.004 29.24 159.85 29.7067 159.85 30.32V31.28H163.29V30.38C163.29 29.74 163.13 29.2533 162.81 28.92C162.504 28.5867 162.084 28.42 161.55 28.42ZM174.016 37H172.396V35.42C171.596 36.6333 170.682 37.24 169.656 37.24C168.829 37.24 168.196 36.96 167.756 36.4C167.316 35.8267 167.096 34.9933 167.096 33.9V30.34C167.096 29.2867 167.336 28.4667 167.816 27.88C168.309 27.2933 169.009 27 169.916 27C170.302 27 170.709 27.1 171.136 27.3C171.562 27.4867 171.956 27.72 172.316 28V23.34H174.016V37ZM170.296 28.52C169.816 28.52 169.442 28.6933 169.176 29.04C168.922 29.3733 168.796 29.8867 168.796 30.58V33.68C168.796 35.04 169.216 35.72 170.056 35.72C170.456 35.72 170.849 35.5667 171.236 35.26C171.636 34.94 171.996 34.4933 172.316 33.92V29.52C172.036 29.2267 171.702 28.9867 171.316 28.8C170.942 28.6133 170.602 28.52 170.296 28.52ZM23.8066 48C24.3666 48 25.0399 48.08 25.8266 48.24L25.7866 49.68C25.0932 49.52 24.4599 49.44 23.8866 49.44C22.6866 49.44 22.0866 49.8267 22.0866 50.6V50.78C22.0866 51.02 22.1466 51.2133 22.2666 51.36C22.3999 51.5067 22.6332 51.66 22.9666 51.82L24.8466 52.7C25.9799 53.2333 26.5466 54.0133 26.5466 55.04V55.48C26.5332 56.4 26.2532 57.0933 25.7066 57.56C25.1732 58.0133 24.3266 58.24 23.1666 58.24C22.5666 58.24 21.7066 58.1 20.5866 57.82L20.6666 56.3C21.6666 56.5933 22.4866 56.74 23.1266 56.74C23.7799 56.74 24.2332 56.6533 24.4866 56.48C24.7399 56.2933 24.8666 55.9933 24.8666 55.58V55.38C24.8666 55.06 24.7999 54.8067 24.6666 54.62C24.5466 54.4333 24.3399 54.2733 24.0466 54.14L22.1066 53.28C21.5199 53.0133 21.0866 52.6933 20.8066 52.32C20.5399 51.9467 20.4066 51.5133 20.4066 51.02V50.74C20.4332 49.8333 20.7132 49.1533 21.2466 48.7C21.7932 48.2333 22.6466 48 23.8066 48ZM30.3433 49.54C31.0766 48.5133 31.93 48 32.9033 48C33.7566 48 34.41 48.2933 34.8633 48.88C35.33 49.4533 35.5633 50.2733 35.5633 51.34V58H33.8633V51.58C33.8633 50.2467 33.43 49.58 32.5633 49.58C32.1766 49.58 31.7833 49.7267 31.3833 50.02C30.9833 50.3133 30.6366 50.7133 30.3433 51.22V58H28.6433V44.34H30.3433V49.54ZM41.5922 48C42.7789 48 43.6589 48.32 44.2322 48.96C44.8189 49.5867 45.1122 50.48 45.1122 51.64V54.6C45.1122 55.76 44.8189 56.66 44.2322 57.3C43.6589 57.9267 42.7789 58.24 41.5922 58.24C40.4055 58.24 39.5189 57.9267 38.9322 57.3C38.3589 56.66 38.0722 55.76 38.0722 54.6V51.64C38.0722 50.48 38.3589 49.5867 38.9322 48.96C39.5189 48.32 40.4055 48 41.5922 48ZM41.5922 49.42C41.0189 49.42 40.5722 49.6 40.2522 49.96C39.9322 50.32 39.7722 50.8333 39.7722 51.5V54.74C39.7722 55.4067 39.9322 55.92 40.2522 56.28C40.5722 56.64 41.0189 56.82 41.5922 56.82C42.1655 56.82 42.6122 56.64 42.9322 56.28C43.2522 55.92 43.4122 55.4067 43.4122 54.74V51.48C43.4122 50.8133 43.2522 50.3067 42.9322 49.96C42.6122 49.6 42.1655 49.42 41.5922 49.42ZM51.9458 48C52.7858 48 53.4391 48.2867 53.9058 48.86C54.3725 49.4333 54.6058 50.26 54.6058 51.34V54.9C54.6058 55.94 54.3325 56.76 53.7858 57.36C53.2525 57.9467 52.5258 58.24 51.6058 58.24C51.2591 58.24 50.8858 58.1667 50.4858 58.02C50.0991 57.8867 49.7391 57.7267 49.4058 57.54V61.7H47.7058V48.24H49.3058V49.66C50.0391 48.5533 50.9191 48 51.9458 48ZM51.6058 49.52C51.2191 49.52 50.8258 49.6667 50.4258 49.96C50.0391 50.24 49.6991 50.6267 49.4058 51.12V56.02C49.6858 56.2467 49.9925 56.4267 50.3258 56.56C50.6725 56.68 50.9858 56.74 51.2658 56.74C52.3591 56.74 52.9058 56.0467 52.9058 54.66V51.58C52.9058 50.2067 52.4725 49.52 51.6058 49.52ZM61.438 48C62.278 48 62.9313 48.2867 63.398 48.86C63.8646 49.4333 64.098 50.26 64.098 51.34V54.9C64.098 55.94 63.8246 56.76 63.278 57.36C62.7446 57.9467 62.018 58.24 61.098 58.24C60.7513 58.24 60.378 58.1667 59.978 58.02C59.5913 57.8867 59.2313 57.7267 58.898 57.54V61.7H57.198V48.24H58.798V49.66C59.5313 48.5533 60.4113 48 61.438 48ZM61.098 49.52C60.7113 49.52 60.318 49.6667 59.918 49.96C59.5313 50.24 59.1913 50.6267 58.898 51.12V56.02C59.178 56.2467 59.4846 56.4267 59.818 56.56C60.1646 56.68 60.478 56.74 60.758 56.74C61.8513 56.74 62.398 56.0467 62.398 54.66V51.58C62.398 50.2067 61.9646 49.52 61.098 49.52ZM68.3902 48.24V58H66.6902V48.24H68.3902ZM67.5302 44.3C67.8902 44.3 68.1635 44.38 68.3502 44.54C68.5502 44.7 68.6502 44.9267 68.6502 45.22V45.8C68.6502 46.0933 68.5502 46.32 68.3502 46.48C68.1635 46.6267 67.8902 46.7 67.5302 46.7C67.1835 46.7 66.9102 46.6267 66.7102 46.48C66.5235 46.32 66.4302 46.0933 66.4302 45.8V45.22C66.4302 44.9267 66.5235 44.7 66.7102 44.54C66.9102 44.38 67.1835 44.3 67.5302 44.3ZM75.4423 48C76.2957 48 76.949 48.2933 77.4023 48.88C77.869 49.4533 78.1023 50.2733 78.1023 51.34V58H76.4023V51.58C76.4023 50.2467 75.969 49.58 75.1023 49.58C74.7157 49.58 74.3223 49.7267 73.9223 50.02C73.5223 50.3133 73.1757 50.7133 72.8823 51.22V58H71.1823V48.24H72.7823V49.7C73.1423 49.1533 73.5423 48.7333 73.9823 48.44C74.4357 48.1467 74.9223 48 75.4423 48ZM84.1089 48C84.6956 48 85.2289 48.0867 85.7089 48.26L88.8289 48.22V49.72L87.1889 49.68C87.4156 50.16 87.5289 50.66 87.5289 51.18V51.62C87.5289 52.5933 87.2289 53.38 86.6289 53.98C86.0289 54.5667 85.1889 54.86 84.1089 54.86C83.4156 54.86 82.8489 54.7933 82.4089 54.66C82.1156 54.9 81.9689 55.1733 81.9689 55.48V55.6C81.9689 55.8133 82.0356 55.9733 82.1689 56.08C82.3022 56.1733 82.5622 56.2333 82.9489 56.26L85.9289 56.48C86.5422 56.5333 87.0356 56.7667 87.4089 57.18C87.7956 57.58 87.9889 58.0867 87.9889 58.7V59.44C87.9889 60.0133 87.8756 60.48 87.6489 60.84C87.4222 61.2 87.0022 61.4733 86.3889 61.66C85.7889 61.8467 84.9222 61.94 83.7889 61.94C83.3622 61.94 82.8556 61.8933 82.2689 61.8C81.6956 61.7067 81.1489 61.5867 80.6289 61.44L80.6889 59.86C81.9289 60.2733 82.9822 60.48 83.8489 60.48C84.5689 60.48 85.1022 60.4333 85.4489 60.34C85.8089 60.26 86.0422 60.1333 86.1489 59.96C86.2689 59.7867 86.3289 59.5267 86.3289 59.18V59.02C86.3289 58.7133 86.2422 58.4733 86.0689 58.3C85.9089 58.1267 85.6756 58.0333 85.3689 58.02L82.3689 57.82C81.7289 57.78 81.2422 57.6 80.9089 57.28C80.5756 56.96 80.4089 56.5267 80.4089 55.98V55.58C80.4089 55.2867 80.4822 55 80.6289 54.72C80.7889 54.44 81.0156 54.1933 81.3089 53.98C81.0822 53.7267 80.9156 53.4067 80.8089 53.02C80.7156 52.62 80.6689 52.1333 80.6689 51.56V51.12C80.6689 50.1733 80.9622 49.42 81.5489 48.86C82.1356 48.2867 82.9889 48 84.1089 48ZM84.1089 49.42C83.5489 49.42 83.1156 49.5667 82.8089 49.86C82.5156 50.14 82.3689 50.5467 82.3689 51.08V51.74C82.3689 52.2333 82.4089 52.6 82.4889 52.84C82.5822 53.0667 82.7422 53.2267 82.9689 53.32C83.1956 53.4 83.5356 53.44 83.9889 53.44C84.6022 53.44 85.0622 53.2933 85.3689 53C85.6756 52.7067 85.8289 52.2867 85.8289 51.74V51.14C85.8289 50.58 85.7489 50.0933 85.5889 49.68C85.4289 49.6133 85.2089 49.5533 84.9289 49.5C84.6622 49.4467 84.3889 49.42 84.1089 49.42ZM95.7144 44.34V58H94.0144V44.34H95.7144ZM100.207 48.24V58H98.5066V48.24H100.207ZM99.3466 44.3C99.7066 44.3 99.9799 44.38 100.167 44.54C100.367 44.7 100.467 44.9267 100.467 45.22V45.8C100.467 46.0933 100.367 46.32 100.167 46.48C99.9799 46.6267 99.7066 46.7 99.3466 46.7C98.9999 46.7 98.7266 46.6267 98.5266 46.48C98.3399 46.32 98.2466 46.0933 98.2466 45.8V45.22C98.2466 44.9267 98.3399 44.7 98.5266 44.54C98.7266 44.38 98.9999 44.3 99.3466 44.3ZM105.799 48C106.359 48 107.032 48.08 107.819 48.24L107.779 49.68C107.085 49.52 106.452 49.44 105.879 49.44C104.679 49.44 104.079 49.8267 104.079 50.6V50.78C104.079 51.02 104.139 51.2133 104.259 51.36C104.392 51.5067 104.625 51.66 104.959 51.82L106.839 52.7C107.972 53.2333 108.539 54.0133 108.539 55.04V55.48C108.525 56.4 108.245 57.0933 107.699 57.56C107.165 58.0133 106.319 58.24 105.159 58.24C104.559 58.24 103.699 58.1 102.579 57.82L102.659 56.3C103.659 56.5933 104.479 56.74 105.119 56.74C105.772 56.74 106.225 56.6533 106.479 56.48C106.732 56.2933 106.859 55.9933 106.859 55.58V55.38C106.859 55.06 106.792 54.8067 106.659 54.62C106.539 54.4333 106.332 54.2733 106.039 54.14L104.099 53.28C103.512 53.0133 103.079 52.6933 102.799 52.32C102.532 51.9467 102.399 51.5133 102.399 51.02V50.74C102.425 49.8333 102.705 49.1533 103.239 48.7C103.785 48.2333 104.639 48 105.799 48ZM112.635 48.24H115.235V49.64H112.635V55.36C112.635 55.8667 112.735 56.2333 112.935 56.46C113.149 56.6733 113.475 56.78 113.915 56.78C114.475 56.78 115.022 56.7133 115.555 56.58L115.595 58C115.009 58.16 114.475 58.24 113.995 58.24C112.929 58.24 112.149 58.0067 111.655 57.54C111.175 57.06 110.935 56.2867 110.935 55.22V49.64H109.535V48.24H110.935L111.255 45.64H112.635V48.24ZM122.987 48.24H125.587V49.64H122.987V55.36C122.987 55.8667 123.087 56.2333 123.287 56.46C123.5 56.6733 123.827 56.78 124.267 56.78C124.827 56.78 125.374 56.7133 125.907 56.58L125.947 58C125.36 58.16 124.827 58.24 124.347 58.24C123.28 58.24 122.5 58.0067 122.007 57.54C121.527 57.06 121.287 56.2867 121.287 55.22V49.64H119.887V48.24H121.287L121.607 45.64H122.987V48.24ZM131.065 48C132.252 48 133.132 48.32 133.705 48.96C134.292 49.5867 134.585 50.48 134.585 51.64V54.6C134.585 55.76 134.292 56.66 133.705 57.3C133.132 57.9267 132.252 58.24 131.065 58.24C129.878 58.24 128.992 57.9267 128.405 57.3C127.832 56.66 127.545 55.76 127.545 54.6V51.64C127.545 50.48 127.832 49.5867 128.405 48.96C128.992 48.32 129.878 48 131.065 48ZM131.065 49.42C130.492 49.42 130.045 49.6 129.725 49.96C129.405 50.32 129.245 50.8333 129.245 51.5V54.74C129.245 55.4067 129.405 55.92 129.725 56.28C130.045 56.64 130.492 56.82 131.065 56.82C131.638 56.82 132.085 56.64 132.405 56.28C132.725 55.92 132.885 55.4067 132.885 54.74V51.48C132.885 50.8133 132.725 50.3067 132.405 49.96C132.085 49.6 131.638 49.42 131.065 49.42ZM143.572 48C144.132 48 144.806 48.08 145.592 48.24L145.552 49.68C144.859 49.52 144.226 49.44 143.652 49.44C142.452 49.44 141.852 49.8267 141.852 50.6V50.78C141.852 51.02 141.912 51.2133 142.032 51.36C142.166 51.5067 142.399 51.66 142.732 51.82L144.612 52.7C145.746 53.2333 146.312 54.0133 146.312 55.04V55.48C146.299 56.4 146.019 57.0933 145.472 57.56C144.939 58.0133 144.092 58.24 142.932 58.24C142.332 58.24 141.472 58.1 140.352 57.82L140.432 56.3C141.432 56.5933 142.252 56.74 142.892 56.74C143.546 56.74 143.999 56.6533 144.252 56.48C144.506 56.2933 144.632 55.9933 144.632 55.58V55.38C144.632 55.06 144.566 54.8067 144.432 54.62C144.312 54.4333 144.106 54.2733 143.812 54.14L141.872 53.28C141.286 53.0133 140.852 52.6933 140.572 52.32C140.306 51.9467 140.172 51.5133 140.172 51.02V50.74C140.199 49.8333 140.479 49.1533 141.012 48.7C141.559 48.2333 142.412 48 143.572 48ZM151.291 48C152.438 48 153.271 48.26 153.791 48.78C154.325 49.2867 154.591 50.1 154.591 51.22V58H152.971V56.44C152.198 57.64 151.325 58.24 150.351 58.24C149.578 58.24 148.958 57.9733 148.491 57.44C148.038 56.9067 147.811 56.18 147.811 55.26V54.7C147.811 53.9 148.085 53.24 148.631 52.72C149.178 52.1867 149.911 51.92 150.831 51.92C151.338 51.92 152.025 52.0067 152.891 52.18V51.08C152.891 50.5067 152.758 50.0933 152.491 49.84C152.238 49.5867 151.838 49.46 151.291 49.46C150.651 49.46 149.751 49.56 148.591 49.76V48.3C149.845 48.1 150.745 48 151.291 48ZM151.251 53.24C150.691 53.24 150.265 53.3867 149.971 53.68C149.678 53.9733 149.531 54.3867 149.531 54.92V55.14C149.531 55.6333 149.645 56.02 149.871 56.3C150.098 56.58 150.385 56.72 150.731 56.72C151.091 56.72 151.458 56.5667 151.831 56.26C152.218 55.94 152.571 55.4933 152.891 54.92V53.38C152.385 53.2867 151.838 53.24 151.251 53.24ZM164.336 48.24L161.316 58H159.096L156.096 48.24H157.896L160.216 56.76L162.536 48.24H164.336ZM169.07 48C170.19 48 171.043 48.3067 171.63 48.92C172.217 49.5333 172.51 50.42 172.51 51.58V53.64H167.37V54.82C167.37 55.5 167.53 55.9933 167.85 56.3C168.183 56.5933 168.703 56.74 169.41 56.74C170.103 56.74 170.97 56.6333 172.01 56.42L172.05 57.9C170.81 58.1267 169.923 58.24 169.39 58.24C168.07 58.24 167.117 57.9533 166.53 57.38C165.957 56.8067 165.67 55.92 165.67 54.72V51.58C165.67 50.42 165.95 49.5333 166.51 48.92C167.083 48.3067 167.937 48 169.07 48ZM169.07 49.42C168.55 49.42 168.137 49.5867 167.83 49.92C167.523 50.24 167.37 50.7067 167.37 51.32V52.28H170.81V51.38C170.81 50.74 170.65 50.2533 170.33 49.92C170.023 49.5867 169.603 49.42 169.07 49.42ZM180.409 48.24H183.009V49.64H180.409V55.36C180.409 55.8667 180.509 56.2333 180.709 56.46C180.922 56.6733 181.249 56.78 181.689 56.78C182.249 56.78 182.796 56.7133 183.329 56.58L183.369 58C182.782 58.16 182.249 58.24 181.769 58.24C180.702 58.24 179.922 58.0067 179.429 57.54C178.949 57.06 178.709 56.2867 178.709 55.22V49.64H177.309V48.24H178.709L179.029 45.64H180.409V48.24ZM186.867 48.24V58H185.167V48.24H186.867ZM186.007 44.3C186.367 44.3 186.64 44.38 186.827 44.54C187.027 44.7 187.127 44.9267 187.127 45.22V45.8C187.127 46.0933 187.027 46.32 186.827 46.48C186.64 46.6267 186.367 46.7 186.007 46.7C185.66 46.7 185.387 46.6267 185.187 46.48C185 46.32 184.907 46.0933 184.907 45.8V45.22C184.907 44.9267 185 44.7 185.187 44.54C185.387 44.38 185.66 44.3 186.007 44.3ZM199.039 48C199.892 48 200.546 48.2933 200.999 48.88C201.452 49.4533 201.679 50.2733 201.679 51.34V58H199.979V51.58C199.979 50.2467 199.552 49.58 198.699 49.58C198.326 49.58 197.939 49.7267 197.539 50.02C197.152 50.3133 196.812 50.7133 196.519 51.22V58H194.819V51.58C194.819 50.2467 194.392 49.58 193.539 49.58C193.166 49.58 192.779 49.7267 192.379 50.02C191.992 50.3133 191.652 50.7133 191.359 51.22V58H189.659V48.24H191.259V49.7C191.606 49.1533 192.006 48.7333 192.459 48.44C192.912 48.1467 193.386 48 193.879 48C194.492 48 195.006 48.16 195.419 48.48C195.832 48.7867 196.132 49.24 196.319 49.84C196.679 49.24 197.092 48.7867 197.559 48.48C198.026 48.16 198.519 48 199.039 48ZM207.683 48C208.803 48 209.656 48.3067 210.243 48.92C210.83 49.5333 211.123 50.42 211.123 51.58V53.64H205.983V54.82C205.983 55.5 206.143 55.9933 206.463 56.3C206.796 56.5933 207.316 56.74 208.023 56.74C208.716 56.74 209.583 56.6333 210.623 56.42L210.663 57.9C209.423 58.1267 208.536 58.24 208.003 58.24C206.683 58.24 205.73 57.9533 205.143 57.38C204.57 56.8067 204.283 55.92 204.283 54.72V51.58C204.283 50.42 204.563 49.5333 205.123 48.92C205.696 48.3067 206.55 48 207.683 48ZM207.683 49.42C207.163 49.42 206.75 49.5867 206.443 49.92C206.136 50.24 205.983 50.7067 205.983 51.32V52.28H209.423V51.38C209.423 50.74 209.263 50.2533 208.943 49.92C208.636 49.5867 208.216 49.42 207.683 49.42ZM214.248 55.8C215.008 55.8 215.388 56.1133 215.388 56.74V57.32C215.388 57.6133 215.288 57.84 215.088 58C214.902 58.16 214.622 58.24 214.248 58.24C213.888 58.24 213.608 58.16 213.408 58C213.222 57.84 213.128 57.6133 213.128 57.32V56.74C213.128 56.4333 213.222 56.2 213.408 56.04C213.608 55.88 213.888 55.8 214.248 55.8Z" fill="#42FF00"/>
</svg>
