<svg width="255" height="248" viewBox="0 0 255 248" fill="none" xmlns="http://www.w3.org/2000/svg">
<rect width="255" height="248" fill="#E5E5E5"/>
<rect width="254.607" height="248" fill="black"/>
<path fill-rule="evenodd" clip-rule="evenodd" d="M118.55 94.9678L102.546 104.995L111.598 118.51L103.812 119.179L104.714 130.918L103.619 129.283L87.6148 139.31L101.022 159.326L117.027 149.299L112.453 142.472L124.569 141.43L124.561 141.325L132.436 153.083L148.44 143.055L148.289 142.83L162.802 145.188L167.345 121.549L148.689 118.517L147.92 122.521L136.933 106.118L129.245 110.935L118.55 94.9678ZM146.799 128.353L141.018 131.975L144.969 137.873L146.799 128.353ZM123.64 120.195L128.35 127.226L123.701 130.139L122.969 120.616L123.64 120.195Z" fill="#C4C4C4"/>
<path fill-rule="evenodd" clip-rule="evenodd" d="M174.607 137.328V197.433H171.607V212.933H174.607V216.933H168.607H97.6066H91.6066V212.933H134.607H167.607V197.433H135.252L134.607 212.933L130.61 212.767L131.249 197.433H91.6066V158.933L168.499 136.699L176.255 113L181.958 114.866L174.607 137.328ZM97.6066 216.933C100.92 216.933 103.607 219.396 103.607 222.433C103.607 225.471 100.92 227.933 97.6066 227.933C94.2929 227.933 91.6066 225.471 91.6066 222.433C91.6066 219.396 94.2929 216.933 97.6066 216.933ZM168.607 216.933C171.92 216.933 174.607 219.396 174.607 222.433C174.607 225.471 171.92 227.933 168.607 227.933C165.293 227.933 162.607 225.471 162.607 222.433C162.607 219.396 165.293 216.933 168.607 216.933Z" fill="#757575"/>
<path fill-rule="evenodd" clip-rule="evenodd" d="M160.745 152.197L153.02 145L136.338 163.072L117.699 146.023L110.607 153.849L129.174 170.833L112.642 188.742L120.366 195.939L136.964 177.959L154.514 194.013L161.607 186.187L144.128 170.198L160.745 152.197Z" fill="#BE0707"/>
<path d="M24.7266 21.74C25.8599 21.74 26.7266 22.0133 27.3266 22.56C27.9266 23.1067 28.2266 23.8733 28.2266 24.86V25.06C28.2266 25.6733 28.0932 26.2133 27.8266 26.68C27.5732 27.1333 27.1932 27.48 26.6866 27.72C27.2332 27.9467 27.6666 28.3133 27.9866 28.82C28.3199 29.3267 28.4866 29.9 28.4866 30.54V30.74C28.4866 31.7933 28.1666 32.64 27.5266 33.28C26.8999 33.92 25.9866 34.24 24.7866 34.24C24.1599 34.24 23.2999 34.1533 22.2066 33.98V32.56C23.2199 32.7333 24.0799 32.82 24.7866 32.82C25.4266 32.82 25.9199 32.6467 26.2666 32.3C26.6132 31.94 26.7866 31.4533 26.7866 30.84V30.52C26.7866 29.16 26.0866 28.48 24.6866 28.48H22.9066V27.12H24.6866C25.3132 27.12 25.7732 26.9667 26.0666 26.66C26.3732 26.34 26.5266 25.8333 26.5266 25.14V24.76C26.5266 23.68 25.9266 23.14 24.7266 23.14C24.1399 23.14 23.2999 23.2333 22.2066 23.42V22C23.2999 21.8267 24.1399 21.74 24.7266 21.74ZM31.307 31.8C32.067 31.8 32.447 32.1133 32.447 32.74V33.32C32.447 33.6133 32.347 33.84 32.147 34C31.9604 34.16 31.6804 34.24 31.307 34.24C30.947 34.24 30.667 34.16 30.467 34C30.2804 33.84 30.187 33.6133 30.187 33.32V32.74C30.187 32.4333 30.2804 32.2 30.467 32.04C30.667 31.88 30.947 31.8 31.307 31.8ZM42.2939 20.66C43.8806 20.66 45.1006 21.1133 45.9539 22.02C46.8206 22.9133 47.2539 24.2067 47.2539 25.9V29.18C47.2539 30.8067 46.8206 32.06 45.9539 32.94C45.1006 33.8067 43.8472 34.24 42.1939 34.24C41.0606 34.24 39.8739 34.2 38.6339 34.12V20.74C39.8339 20.6867 41.0539 20.66 42.2939 20.66ZM42.1939 22.1C41.7806 22.1 41.1606 22.1133 40.3339 22.14V32.66C41.1206 32.74 41.7406 32.78 42.1939 32.78C43.2206 32.78 44.0339 32.4867 44.6339 31.9C45.2472 31.3 45.5539 30.44 45.5539 29.32V25.78C45.5539 24.5667 45.2606 23.6533 44.6739 23.04C44.0872 22.4133 43.2606 22.1 42.1939 22.1ZM53.2797 24C54.4664 24 55.3464 24.32 55.9197 24.96C56.5064 25.5867 56.7997 26.48 56.7997 27.64V30.6C56.7997 31.76 56.5064 32.66 55.9197 33.3C55.3464 33.9267 54.4664 34.24 53.2797 34.24C52.093 34.24 51.2064 33.9267 50.6197 33.3C50.0464 32.66 49.7597 31.76 49.7597 30.6V27.64C49.7597 26.48 50.0464 25.5867 50.6197 24.96C51.2064 24.32 52.093 24 53.2797 24ZM53.2797 25.42C52.7064 25.42 52.2597 25.6 51.9397 25.96C51.6197 26.32 51.4597 26.8333 51.4597 27.5V30.74C51.4597 31.4067 51.6197 31.92 51.9397 32.28C52.2597 32.64 52.7064 32.82 53.2797 32.82C53.853 32.82 54.2997 32.64 54.6197 32.28C54.9397 31.92 55.0997 31.4067 55.0997 30.74V27.48C55.0997 26.8133 54.9397 26.3067 54.6197 25.96C54.2997 25.6 53.853 25.42 53.2797 25.42ZM67.247 24C68.1004 24 68.7537 24.2933 69.207 24.88C69.6737 25.4533 69.907 26.2733 69.907 27.34V34H68.207V27.58C68.207 26.2467 67.7737 25.58 66.907 25.58C66.5204 25.58 66.127 25.7267 65.727 26.02C65.327 26.3133 64.9804 26.7133 64.687 27.22V34H62.987V24.24H64.587V25.7C64.947 25.1533 65.347 24.7333 65.787 24.44C66.2404 24.1467 66.727 24 67.247 24ZM76.0336 24C77.2203 24 78.1003 24.32 78.6736 24.96C79.2603 25.5867 79.5536 26.48 79.5536 27.64V30.6C79.5536 31.76 79.2603 32.66 78.6736 33.3C78.1003 33.9267 77.2203 34.24 76.0336 34.24C74.8469 34.24 73.9603 33.9267 73.3736 33.3C72.8003 32.66 72.5136 31.76 72.5136 30.6V27.64C72.5136 26.48 72.8003 25.5867 73.3736 24.96C73.9603 24.32 74.8469 24 76.0336 24ZM76.0336 25.42C75.4603 25.42 75.0136 25.6 74.6936 25.96C74.3736 26.32 74.2136 26.8333 74.2136 27.5V30.74C74.2136 31.4067 74.3736 31.92 74.6936 32.28C75.0136 32.64 75.4603 32.82 76.0336 32.82C76.6069 32.82 77.0536 32.64 77.3736 32.28C77.6936 31.92 77.8536 31.4067 77.8536 30.74V27.48C77.8536 26.8133 77.6936 26.3067 77.3736 25.96C77.0536 25.6 76.6069 25.42 76.0336 25.42ZM84.2058 24.24H86.8058V25.64H84.2058V31.36C84.2058 31.8667 84.3058 32.2333 84.5058 32.46C84.7191 32.6733 85.0458 32.78 85.4858 32.78C86.0458 32.78 86.5925 32.7133 87.1258 32.58L87.1658 34C86.5791 34.16 86.0458 34.24 85.5658 34.24C84.4991 34.24 83.7191 34.0067 83.2258 33.54C82.7458 33.06 82.5058 32.2867 82.5058 31.22V25.64H81.1058V24.24H82.5058L82.8258 21.64H84.2058V24.24ZM94.1573 25.54C94.504 25.0467 94.904 24.6667 95.3573 24.4C95.8107 24.1333 96.284 24 96.7773 24C97.604 24 98.244 24.2933 98.6973 24.88C99.1507 25.4533 99.3773 26.2933 99.3773 27.4V30.56C99.3773 31.7733 99.0907 32.6933 98.5173 33.32C97.944 33.9333 97.0573 34.24 95.8573 34.24C94.684 34.24 93.824 33.94 93.2773 33.34C92.7307 32.74 92.4573 31.8267 92.4573 30.6V20.34H94.1573V25.54ZM96.3773 25.52C95.9907 25.52 95.5973 25.6667 95.1973 25.96C94.7973 26.2533 94.4507 26.6533 94.1573 27.16V30.8C94.1573 31.4533 94.304 31.9533 94.5973 32.3C94.904 32.6467 95.324 32.82 95.8573 32.82C97.0707 32.82 97.6773 32.1333 97.6773 30.76V27.64C97.6773 26.2267 97.244 25.52 96.3773 25.52ZM108.771 34H107.171V32.6C106.811 33.1333 106.411 33.54 105.971 33.82C105.531 34.1 105.065 34.24 104.571 34.24C103.758 34.24 103.118 33.96 102.651 33.4C102.198 32.8267 101.971 31.9933 101.971 30.9V24.24H103.671V30.6C103.671 31.3067 103.778 31.8267 103.991 32.16C104.218 32.4933 104.525 32.66 104.911 32.66C105.271 32.66 105.645 32.52 106.031 32.24C106.431 31.9467 106.778 31.5467 107.071 31.04V24.24H108.771V34ZM118.701 24.24L114.221 37.7H112.521L113.801 34H113.161L110.381 24.24H112.241L114.341 32.78L116.941 24.24H118.701ZM133.265 24C134.119 24 134.772 24.2933 135.225 24.88C135.679 25.4533 135.905 26.2733 135.905 27.34V34H134.205V27.58C134.205 26.2467 133.779 25.58 132.925 25.58C132.552 25.58 132.165 25.7267 131.765 26.02C131.379 26.3133 131.039 26.7133 130.745 27.22V34H129.045V27.58C129.045 26.2467 128.619 25.58 127.765 25.58C127.392 25.58 127.005 25.7267 126.605 26.02C126.219 26.3133 125.879 26.7133 125.585 27.22V34H123.885V24.24H125.485V25.7C125.832 25.1533 126.232 24.7333 126.685 24.44C127.139 24.1467 127.612 24 128.105 24C128.719 24 129.232 24.16 129.645 24.48C130.059 24.7867 130.359 25.24 130.545 25.84C130.905 25.24 131.319 24.7867 131.785 24.48C132.252 24.16 132.745 24 133.265 24ZM142.03 24C143.216 24 144.096 24.32 144.67 24.96C145.256 25.5867 145.55 26.48 145.55 27.64V30.6C145.55 31.76 145.256 32.66 144.67 33.3C144.096 33.9267 143.216 34.24 142.03 34.24C140.843 34.24 139.956 33.9267 139.37 33.3C138.796 32.66 138.51 31.76 138.51 30.6V27.64C138.51 26.48 138.796 25.5867 139.37 24.96C139.956 24.32 140.843 24 142.03 24ZM142.03 25.42C141.456 25.42 141.01 25.6 140.69 25.96C140.37 26.32 140.21 26.8333 140.21 27.5V30.74C140.21 31.4067 140.37 31.92 140.69 32.28C141.01 32.64 141.456 32.82 142.03 32.82C142.603 32.82 143.05 32.64 143.37 32.28C143.69 31.92 143.85 31.4067 143.85 30.74V27.48C143.85 26.8133 143.69 26.3067 143.37 25.96C143.05 25.6 142.603 25.42 142.03 25.42ZM152.403 24C152.59 24 152.737 24.0133 152.843 24.04V25.96C152.643 25.92 152.383 25.9 152.063 25.9C151.13 25.9 150.39 26.3667 149.843 27.3V34H148.143V24.24H149.743V25.7C150.103 25.1533 150.503 24.7333 150.943 24.44C151.397 24.1467 151.883 24 152.403 24ZM157.71 24C158.83 24 159.684 24.3067 160.27 24.92C160.857 25.5333 161.15 26.42 161.15 27.58V29.64H156.01V30.82C156.01 31.5 156.17 31.9933 156.49 32.3C156.824 32.5933 157.344 32.74 158.05 32.74C158.744 32.74 159.61 32.6333 160.65 32.42L160.69 33.9C159.45 34.1267 158.564 34.24 158.03 34.24C156.71 34.24 155.757 33.9533 155.17 33.38C154.597 32.8067 154.31 31.92 154.31 30.72V27.58C154.31 26.42 154.59 25.5333 155.15 24.92C155.724 24.3067 156.577 24 157.71 24ZM157.71 25.42C157.19 25.42 156.777 25.5867 156.47 25.92C156.164 26.24 156.01 26.7067 156.01 27.32V28.28H159.45V27.38C159.45 26.74 159.29 26.2533 158.97 25.92C158.664 25.5867 158.244 25.42 157.71 25.42ZM169.05 24.24H171.65V25.64H169.05V31.36C169.05 31.8667 169.15 32.2333 169.35 32.46C169.563 32.6733 169.89 32.78 170.33 32.78C170.89 32.78 171.436 32.7133 171.97 32.58L172.01 34C171.423 34.16 170.89 34.24 170.41 34.24C169.343 34.24 168.563 34.0067 168.07 33.54C167.59 33.06 167.35 32.2867 167.35 31.22V25.64H165.95V24.24H167.35L167.67 21.64H169.05V24.24ZM175.507 25.54C176.241 24.5133 177.094 24 178.067 24C178.921 24 179.574 24.2933 180.027 24.88C180.494 25.4533 180.727 26.2733 180.727 27.34V34H179.027V27.58C179.027 26.2467 178.594 25.58 177.727 25.58C177.341 25.58 176.947 25.7267 176.547 26.02C176.147 26.3133 175.801 26.7133 175.507 27.22V34H173.807V20.34H175.507V25.54ZM186.416 24C187.563 24 188.396 24.26 188.916 24.78C189.45 25.2867 189.716 26.1 189.716 27.22V34H188.096V32.44C187.323 33.64 186.45 34.24 185.476 34.24C184.703 34.24 184.083 33.9733 183.616 33.44C183.163 32.9067 182.936 32.18 182.936 31.26V30.7C182.936 29.9 183.21 29.24 183.756 28.72C184.303 28.1867 185.036 27.92 185.956 27.92C186.463 27.92 187.15 28.0067 188.016 28.18V27.08C188.016 26.5067 187.883 26.0933 187.616 25.84C187.363 25.5867 186.963 25.46 186.416 25.46C185.776 25.46 184.876 25.56 183.716 25.76V24.3C184.97 24.1 185.87 24 186.416 24ZM186.376 29.24C185.816 29.24 185.39 29.3867 185.096 29.68C184.803 29.9733 184.656 30.3867 184.656 30.92V31.14C184.656 31.6333 184.77 32.02 184.996 32.3C185.223 32.58 185.51 32.72 185.856 32.72C186.216 32.72 186.583 32.5667 186.956 32.26C187.343 31.94 187.696 31.4933 188.016 30.92V29.38C187.51 29.2867 186.963 29.24 186.376 29.24ZM196.681 24C197.534 24 198.187 24.2933 198.641 24.88C199.107 25.4533 199.341 26.2733 199.341 27.34V34H197.641V27.58C197.641 26.2467 197.207 25.58 196.341 25.58C195.954 25.58 195.561 25.7267 195.161 26.02C194.761 26.3133 194.414 26.7133 194.121 27.22V34H192.421V24.24H194.021V25.7C194.381 25.1533 194.781 24.7333 195.221 24.44C195.674 24.1467 196.161 24 196.681 24ZM34.7666 45.24L32.5066 55H30.3666L28.3866 46.72L26.3866 55H24.2466L22.0066 45.24H23.8066L25.3866 53.5L27.2866 45.24H29.4866L31.3666 53.5L32.9666 45.24H34.7666ZM38.2613 46.54C38.9946 45.5133 39.8479 45 40.8213 45C41.6746 45 42.3279 45.2933 42.7813 45.88C43.2479 46.4533 43.4813 47.2733 43.4813 48.34V55H41.7813V48.58C41.7813 47.2467 41.3479 46.58 40.4813 46.58C40.0946 46.58 39.7013 46.7267 39.3013 47.02C38.9013 47.3133 38.5546 47.7133 38.2613 48.22V55H36.5613V41.34H38.2613V46.54ZM49.1702 45C50.3168 45 51.1502 45.26 51.6702 45.78C52.2035 46.2867 52.4702 47.1 52.4702 48.22V55H50.8502V53.44C50.0768 54.64 49.2035 55.24 48.2302 55.24C47.4568 55.24 46.8368 54.9733 46.3702 54.44C45.9168 53.9067 45.6902 53.18 45.6902 52.26V51.7C45.6902 50.9 45.9635 50.24 46.5102 49.72C47.0568 49.1867 47.7902 48.92 48.7102 48.92C49.2168 48.92 49.9035 49.0067 50.7702 49.18V48.08C50.7702 47.5067 50.6368 47.0933 50.3702 46.84C50.1168 46.5867 49.7168 46.46 49.1702 46.46C48.5302 46.46 47.6302 46.56 46.4702 46.76V45.3C47.7235 45.1 48.6235 45 49.1702 45ZM49.1302 50.24C48.5702 50.24 48.1435 50.3867 47.8502 50.68C47.5568 50.9733 47.4102 51.3867 47.4102 51.92V52.14C47.4102 52.6333 47.5235 53.02 47.7502 53.3C47.9768 53.58 48.2635 53.72 48.6102 53.72C48.9702 53.72 49.3368 53.5667 49.7102 53.26C50.0968 52.94 50.4502 52.4933 50.7702 51.92V50.38C50.2635 50.2867 49.7168 50.24 49.1302 50.24ZM57.1745 45.24H59.7745V46.64H57.1745V52.36C57.1745 52.8667 57.2745 53.2333 57.4745 53.46C57.6879 53.6733 58.0145 53.78 58.4545 53.78C59.0145 53.78 59.5612 53.7133 60.0945 53.58L60.1345 55C59.5479 55.16 59.0145 55.24 58.5345 55.24C57.4679 55.24 56.6879 55.0067 56.1945 54.54C55.7145 54.06 55.4745 53.2867 55.4745 52.22V46.64H54.0745V45.24H55.4745L55.7945 42.64H57.1745V45.24ZM72.6461 45.24L68.1661 58.7H66.4661L67.7461 55H67.1061L64.3261 45.24H66.1861L68.2861 53.78L70.8861 45.24H72.6461ZM77.4984 45C78.6851 45 79.5651 45.32 80.1384 45.96C80.7251 46.5867 81.0184 47.48 81.0184 48.64V51.6C81.0184 52.76 80.7251 53.66 80.1384 54.3C79.5651 54.9267 78.6851 55.24 77.4984 55.24C76.3118 55.24 75.4251 54.9267 74.8384 54.3C74.2651 53.66 73.9784 52.76 73.9784 51.6V48.64C73.9784 47.48 74.2651 46.5867 74.8384 45.96C75.4251 45.32 76.3118 45 77.4984 45ZM77.4984 46.42C76.9251 46.42 76.4784 46.6 76.1584 46.96C75.8384 47.32 75.6784 47.8333 75.6784 48.5V51.74C75.6784 52.4067 75.8384 52.92 76.1584 53.28C76.4784 53.64 76.9251 53.82 77.4984 53.82C78.0718 53.82 78.5184 53.64 78.8384 53.28C79.1584 52.92 79.3184 52.4067 79.3184 51.74V48.48C79.3184 47.8133 79.1584 47.3067 78.8384 46.96C78.5184 46.6 78.0718 46.42 77.4984 46.42ZM90.412 55H88.812V53.6C88.452 54.1333 88.052 54.54 87.612 54.82C87.172 55.1 86.7054 55.24 86.212 55.24C85.3987 55.24 84.7587 54.96 84.292 54.4C83.8387 53.8267 83.612 52.9933 83.612 51.9V45.24H85.312V51.6C85.312 52.3067 85.4187 52.8267 85.632 53.16C85.8587 53.4933 86.1654 53.66 86.552 53.66C86.912 53.66 87.2854 53.52 87.672 53.24C88.072 52.9467 88.4187 52.5467 88.712 52.04V45.24H90.412V55ZM101.075 45C101.262 45 101.408 45.0133 101.515 45.04V46.96C101.315 46.92 101.055 46.9 100.735 46.9C99.8018 46.9 99.0618 47.3667 98.5152 48.3V55H96.8152V45.24H98.4152V46.7C98.7752 46.1533 99.1752 45.7333 99.6152 45.44C100.068 45.1467 100.555 45 101.075 45ZM106.382 45C107.502 45 108.356 45.3067 108.942 45.92C109.529 46.5333 109.822 47.42 109.822 48.58V50.64H104.682V51.82C104.682 52.5 104.842 52.9933 105.162 53.3C105.496 53.5933 106.016 53.74 106.722 53.74C107.416 53.74 108.282 53.6333 109.322 53.42L109.362 54.9C108.122 55.1267 107.236 55.24 106.702 55.24C105.382 55.24 104.429 54.9533 103.842 54.38C103.269 53.8067 102.982 52.92 102.982 51.72V48.58C102.982 47.42 103.262 46.5333 103.822 45.92C104.396 45.3067 105.249 45 106.382 45ZM106.382 46.42C105.862 46.42 105.449 46.5867 105.142 46.92C104.836 47.24 104.682 47.7067 104.682 48.32V49.28H108.122V48.38C108.122 47.74 107.962 47.2533 107.642 46.92C107.336 46.5867 106.916 46.42 106.382 46.42ZM115.108 45C116.254 45 117.088 45.26 117.608 45.78C118.141 46.2867 118.408 47.1 118.408 48.22V55H116.788V53.44C116.014 54.64 115.141 55.24 114.168 55.24C113.394 55.24 112.774 54.9733 112.308 54.44C111.854 53.9067 111.628 53.18 111.628 52.26V51.7C111.628 50.9 111.901 50.24 112.448 49.72C112.994 49.1867 113.728 48.92 114.648 48.92C115.154 48.92 115.841 49.0067 116.708 49.18V48.08C116.708 47.5067 116.574 47.0933 116.308 46.84C116.054 46.5867 115.654 46.46 115.108 46.46C114.468 46.46 113.568 46.56 112.408 46.76V45.3C113.661 45.1 114.561 45 115.108 45ZM115.068 50.24C114.508 50.24 114.081 50.3867 113.788 50.68C113.494 50.9733 113.348 51.3867 113.348 51.92V52.14C113.348 52.6333 113.461 53.02 113.688 53.3C113.914 53.58 114.201 53.72 114.548 53.72C114.908 53.72 115.274 53.5667 115.648 53.26C116.034 52.94 116.388 52.4933 116.708 51.92V50.38C116.201 50.2867 115.654 50.24 115.068 50.24ZM122.812 41.34V55H121.112V41.34H122.812ZM127.304 41.34V55H125.604V41.34H127.304ZM137.216 45.24L132.736 58.7H131.036L132.316 55H131.676L128.896 45.24H130.756L132.856 53.78L135.456 45.24H137.216ZM146.661 45C147.514 45 148.168 45.2933 148.621 45.88C149.088 46.4533 149.321 47.2733 149.321 48.34V55H147.621V48.58C147.621 47.2467 147.188 46.58 146.321 46.58C145.934 46.58 145.541 46.7267 145.141 47.02C144.741 47.3133 144.394 47.7133 144.101 48.22V55H142.401V45.24H144.001V46.7C144.361 46.1533 144.761 45.7333 145.201 45.44C145.654 45.1467 146.141 45 146.661 45ZM155.328 45C156.448 45 157.301 45.3067 157.888 45.92C158.474 46.5333 158.768 47.42 158.768 48.58V50.64H153.628V51.82C153.628 52.5 153.788 52.9933 154.108 53.3C154.441 53.5933 154.961 53.74 155.668 53.74C156.361 53.74 157.228 53.6333 158.268 53.42L158.308 54.9C157.068 55.1267 156.181 55.24 155.648 55.24C154.328 55.24 153.374 54.9533 152.788 54.38C152.214 53.8067 151.928 52.92 151.928 51.72V48.58C151.928 47.42 152.208 46.5333 152.768 45.92C153.341 45.3067 154.194 45 155.328 45ZM155.328 46.42C154.808 46.42 154.394 46.5867 154.088 46.92C153.781 47.24 153.628 47.7067 153.628 48.32V49.28H157.068V48.38C157.068 47.74 156.908 47.2533 156.588 46.92C156.281 46.5867 155.861 46.42 155.328 46.42ZM164.214 45C165.334 45 166.188 45.3067 166.774 45.92C167.361 46.5333 167.654 47.42 167.654 48.58V50.64H162.514V51.82C162.514 52.5 162.674 52.9933 162.994 53.3C163.328 53.5933 163.848 53.74 164.554 53.74C165.248 53.74 166.114 53.6333 167.154 53.42L167.194 54.9C165.954 55.1267 165.068 55.24 164.534 55.24C163.214 55.24 162.261 54.9533 161.674 54.38C161.101 53.8067 160.814 52.92 160.814 51.72V48.58C160.814 47.42 161.094 46.5333 161.654 45.92C162.228 45.3067 163.081 45 164.214 45ZM164.214 46.42C163.694 46.42 163.281 46.5867 162.974 46.92C162.668 47.24 162.514 47.7067 162.514 48.32V49.28H165.954V48.38C165.954 47.74 165.794 47.2533 165.474 46.92C165.168 46.5867 164.748 46.42 164.214 46.42ZM176.68 55H175.06V53.42C174.26 54.6333 173.346 55.24 172.32 55.24C171.493 55.24 170.86 54.96 170.42 54.4C169.98 53.8267 169.76 52.9933 169.76 51.9V48.34C169.76 47.2867 170 46.4667 170.48 45.88C170.973 45.2933 171.673 45 172.58 45C172.966 45 173.373 45.1 173.8 45.3C174.226 45.4867 174.62 45.72 174.98 46V41.34H176.68V55ZM172.96 46.52C172.48 46.52 172.106 46.6933 171.84 47.04C171.586 47.3733 171.46 47.8867 171.46 48.58V51.68C171.46 53.04 171.88 53.72 172.72 53.72C173.12 53.72 173.513 53.5667 173.9 53.26C174.3 52.94 174.66 52.4933 174.98 51.92V47.52C174.7 47.2267 174.366 46.9867 173.98 46.8C173.606 46.6133 173.266 46.52 172.96 46.52ZM180.291 52.8C181.051 52.8 181.431 53.1133 181.431 53.74V54.32C181.431 54.6133 181.331 54.84 181.131 55C180.945 55.16 180.665 55.24 180.291 55.24C179.931 55.24 179.651 55.16 179.451 55C179.265 54.84 179.171 54.6133 179.171 54.32V53.74C179.171 53.4333 179.265 53.2 179.451 53.04C179.651 52.88 179.931 52.8 180.291 52.8Z" fill="#42FF00"/>
</svg>
