<svg width="255" height="248" viewBox="0 0 255 248" fill="none" xmlns="http://www.w3.org/2000/svg">
<rect width="255" height="248" fill="#E5E5E5"/>
<rect width="254.607" height="248" fill="black"/>
<path fill-rule="evenodd" clip-rule="evenodd" d="M140.477 165.697C142.037 162.191 143.495 159.546 144.849 157.603C146.281 155.549 147.577 154.305 148.73 153.645C149.868 152.994 150.864 152.91 151.749 153.173C152.654 153.441 153.503 154.089 154.291 155.011C155.87 156.861 157.074 159.666 157.886 162.054C158.289 163.24 158.591 164.307 158.793 165.078C158.854 165.314 158.906 165.523 158.949 165.697H140.477ZM139.383 165.697C141.027 161.953 142.575 159.118 144.029 157.032C145.505 154.913 146.903 153.539 148.234 152.777C149.58 152.007 150.856 151.865 152.033 152.214C153.191 152.557 154.194 153.358 155.051 154.361C156.76 156.363 158.012 159.32 158.833 161.732C159.246 162.946 159.554 164.037 159.76 164.825C159.854 165.184 159.926 165.48 159.977 165.697H166.303V202.403H135.776V165.697H139.383Z" fill="#757575"/>
<path fill-rule="evenodd" clip-rule="evenodd" d="M124.325 93.478C128.799 92.0272 132.067 87.4273 132.067 81.9771C132.067 75.3623 127.252 70 121.313 70C115.373 70 110.558 75.3623 110.558 81.9771C110.558 87.3266 113.707 91.857 118.053 93.3944C117.539 94.9979 117.223 97.007 117.196 99.1959C113.91 99.7105 110.997 100.758 108.742 102.171C108.081 100.966 106.814 100.151 105.359 100.151C103.221 100.151 101.488 101.912 101.488 104.084C101.488 105.251 101.989 106.3 102.784 107.02C101.287 108.732 99.83 111.733 98.8876 115.36C97.9181 119.091 97.7132 122.638 98.1886 125.059L98.1699 125.059C96.9482 125.059 95.9578 126.233 95.9578 127.681C95.9578 129.042 96.833 130.161 97.9528 130.29C97.4061 132.086 97.0638 134.657 97.0638 137.513C97.0638 140.718 97.4951 143.564 98.1626 145.359C96.8586 146.414 95.9578 148.667 95.9578 151.277C95.9578 154.897 97.691 157.832 99.829 157.832C101.967 157.832 103.7 154.897 103.7 151.277C103.7 148.667 102.799 146.414 101.495 145.359C102.163 143.564 102.594 140.718 102.594 137.513C102.594 133.205 101.815 129.545 100.731 128.215C102.893 128.046 105.577 123.936 107.033 118.333C107.265 117.438 107.454 116.555 107.6 115.694C108.89 116.682 110.474 117.531 112.275 118.198C111.749 120.559 111.456 123.185 111.456 125.953C111.456 130.87 112.382 135.342 113.894 138.672C112.342 139.799 111.193 141.315 110.658 143.043C108.403 146.145 106.483 151.034 105.519 156.741C104.397 163.385 104.842 169.536 106.437 173.37C104.438 174.051 102.982 176.148 102.982 178.631C102.982 181.665 105.157 184.124 107.84 184.124C110.523 184.124 112.698 181.665 112.698 178.631C112.698 178.09 112.629 177.567 112.501 177.074C115.866 175.661 119.201 169.889 120.861 162.311C122.476 169.904 125.729 175.69 129.011 177.107C128.885 177.601 128.818 178.124 128.818 178.666C128.818 181.702 130.938 184.164 133.553 184.164C136.167 184.164 138.287 181.702 138.287 178.666C138.287 176.182 136.869 174.082 134.922 173.4C136.476 169.563 136.91 163.406 135.816 156.757C134.751 150.276 132.486 144.851 129.906 141.894C129.285 140.642 128.328 139.541 127.13 138.672C128.643 135.342 129.569 130.87 129.569 125.953C129.569 123.482 129.335 121.124 128.911 118.967C133.169 117.895 136.575 115.886 138.37 113.382C138.988 114.843 139.803 116.387 140.793 117.918C143.146 121.558 145.888 124.196 148.003 125.089C147.824 125.468 147.721 125.905 147.721 126.37C147.721 127.058 147.945 127.684 148.311 128.152C147.199 129.425 146.394 133.135 146.394 137.513C146.394 140.373 146.738 142.949 147.286 144.745C145.3 145.025 143.74 147.842 143.74 151.277C143.74 154.897 145.473 157.832 147.611 157.832C149.749 157.832 151.482 154.897 151.482 151.277C151.482 149.402 151.017 147.711 150.272 146.516C151.245 144.994 151.924 141.536 151.924 137.513C151.924 133.808 151.348 130.582 150.497 128.906C151.446 128.61 152.146 127.587 152.146 126.37C152.146 125.456 151.751 124.651 151.153 124.182C151.99 121.983 150.592 117.222 147.593 112.584C144.855 108.35 141.593 105.471 139.401 105.118C139.489 104.789 139.537 104.442 139.537 104.084C139.537 101.912 137.803 100.151 135.665 100.151C134.671 100.151 133.763 100.532 133.078 101.159C130.822 100.094 128.116 99.3435 125.153 99.0193C125.113 96.9367 124.81 95.0239 124.325 93.478ZM102.214 216.143C103.138 215.73 104.049 215.375 104.93 215.082C103.732 211.82 102.982 207.157 102.982 201.979C102.982 192.118 105.701 184.124 109.055 184.124C112.409 184.124 115.127 192.118 115.127 201.979C115.127 207.001 114.422 211.539 113.287 214.783C113.486 214.964 113.632 215.177 113.719 215.423C114.46 217.539 110.51 221.291 104.897 223.805C99.2842 226.318 94.1334 226.641 93.3925 224.525C92.6517 222.409 96.6012 218.657 102.214 216.143ZM136.389 215.149C137.248 215.443 138.137 215.798 139.037 216.212C144.507 218.727 148.356 222.483 147.634 224.601C146.912 226.718 141.893 226.396 136.422 223.88C130.952 221.365 127.103 217.609 127.825 215.491C127.909 215.245 128.051 215.032 128.245 214.851C127.138 211.604 126.451 207.062 126.451 202.034C126.451 192.165 129.1 184.164 132.369 184.164C135.638 184.164 138.287 192.165 138.287 202.034C138.287 207.217 137.557 211.885 136.389 215.149Z" fill="#C4C4C4"/>
<path d="M25.3232 21.74C26.6166 21.74 27.5699 22 28.1832 22.52C28.7966 23.04 29.1032 23.82 29.1032 24.86V25.3C29.1032 25.9267 28.9966 26.5067 28.7832 27.04C28.5699 27.5733 28.1232 28.24 27.4432 29.04L24.5432 32.54H29.2432V34H22.5032V32.7L26.5032 27.64C26.8766 27.1733 27.1166 26.7933 27.2232 26.5C27.3432 26.1933 27.4032 25.8 27.4032 25.32V24.96C27.4032 24.32 27.2366 23.8667 26.9032 23.6C26.5832 23.32 26.0566 23.18 25.3232 23.18C24.9632 23.18 24.5499 23.2267 24.0832 23.32C23.6166 23.4 23.1899 23.5 22.8032 23.62V22.16C23.8299 21.88 24.6699 21.74 25.3232 21.74ZM32.3553 31.8C33.1153 31.8 33.4953 32.1133 33.4953 32.74V33.32C33.4953 33.6133 33.3953 33.84 33.1953 34C33.0086 34.16 32.7286 34.24 32.3553 34.24C31.9953 34.24 31.7153 34.16 31.5153 34C31.3286 33.84 31.2353 33.6133 31.2353 33.32V32.74C31.2353 32.4333 31.3286 32.2 31.5153 32.04C31.7153 31.88 31.9953 31.8 32.3553 31.8ZM43.8421 20.66C44.3355 20.66 44.9021 20.7067 45.5421 20.8C46.1821 20.88 46.7688 20.9733 47.3021 21.08L47.2621 22.58C45.7555 22.2867 44.6155 22.14 43.8421 22.14C42.9221 22.14 42.2621 22.3267 41.8621 22.7C41.4755 23.06 41.2821 23.6667 41.2821 24.52V30.32C41.2821 31.1733 41.4755 31.7933 41.8621 32.18C42.2621 32.5533 42.9221 32.74 43.8421 32.74C44.4421 32.74 45.2221 32.6467 46.1821 32.46V28.04H43.6821V26.44H47.8821V33.5C46.2821 33.9933 44.9355 34.24 43.8421 34.24C42.3088 34.24 41.2155 33.9133 40.5621 33.26C39.9088 32.6067 39.5821 31.5867 39.5821 30.2V24.7C39.5821 23.2867 39.9155 22.26 40.5821 21.62C41.2488 20.98 42.3355 20.66 43.8421 20.66ZM53.9959 24C55.1825 24 56.0625 24.32 56.6359 24.96C57.2225 25.5867 57.5159 26.48 57.5159 27.64V30.6C57.5159 31.76 57.2225 32.66 56.6359 33.3C56.0625 33.9267 55.1825 34.24 53.9959 34.24C52.8092 34.24 51.9225 33.9267 51.3359 33.3C50.7625 32.66 50.4759 31.76 50.4759 30.6V27.64C50.4759 26.48 50.7625 25.5867 51.3359 24.96C51.9225 24.32 52.8092 24 53.9959 24ZM53.9959 25.42C53.4225 25.42 52.9759 25.6 52.6559 25.96C52.3359 26.32 52.1759 26.8333 52.1759 27.5V30.74C52.1759 31.4067 52.3359 31.92 52.6559 32.28C52.9759 32.64 53.4225 32.82 53.9959 32.82C54.5692 32.82 55.0159 32.64 55.3359 32.28C55.6559 31.92 55.8159 31.4067 55.8159 30.74V27.48C55.8159 26.8133 55.6559 26.3067 55.3359 25.96C55.0159 25.6 54.5692 25.42 53.9959 25.42ZM66.5032 24C67.0632 24 67.7366 24.08 68.5232 24.24L68.4832 25.68C67.7899 25.52 67.1566 25.44 66.5832 25.44C65.3832 25.44 64.7832 25.8267 64.7832 26.6V26.78C64.7832 27.02 64.8432 27.2133 64.9632 27.36C65.0966 27.5067 65.3299 27.66 65.6632 27.82L67.5432 28.7C68.6766 29.2333 69.2432 30.0133 69.2432 31.04V31.48C69.2299 32.4 68.9499 33.0933 68.4032 33.56C67.8699 34.0133 67.0232 34.24 65.8632 34.24C65.2632 34.24 64.4032 34.1 63.2832 33.82L63.3632 32.3C64.3632 32.5933 65.1832 32.74 65.8232 32.74C66.4766 32.74 66.9299 32.6533 67.1832 32.48C67.4366 32.2933 67.5632 31.9933 67.5632 31.58V31.38C67.5632 31.06 67.4966 30.8067 67.3632 30.62C67.2432 30.4333 67.0366 30.2733 66.7432 30.14L64.8032 29.28C64.2166 29.0133 63.7832 28.6933 63.5032 28.32C63.2366 27.9467 63.1032 27.5133 63.1032 27.02V26.74C63.1299 25.8333 63.4099 25.1533 63.9432 24.7C64.4899 24.2333 65.3432 24 66.5032 24ZM73.0399 25.54C73.7733 24.5133 74.6266 24 75.5999 24C76.4533 24 77.1066 24.2933 77.5599 24.88C78.0266 25.4533 78.2599 26.2733 78.2599 27.34V34H76.5599V27.58C76.5599 26.2467 76.1266 25.58 75.2599 25.58C74.8733 25.58 74.4799 25.7267 74.0799 26.02C73.6799 26.3133 73.3333 26.7133 73.0399 27.22V34H71.3399V20.34H73.0399V25.54ZM84.2888 24C85.4755 24 86.3555 24.32 86.9288 24.96C87.5155 25.5867 87.8088 26.48 87.8088 27.64V30.6C87.8088 31.76 87.5155 32.66 86.9288 33.3C86.3555 33.9267 85.4755 34.24 84.2888 34.24C83.1022 34.24 82.2155 33.9267 81.6288 33.3C81.0555 32.66 80.7688 31.76 80.7688 30.6V27.64C80.7688 26.48 81.0555 25.5867 81.6288 24.96C82.2155 24.32 83.1022 24 84.2888 24ZM84.2888 25.42C83.7155 25.42 83.2688 25.6 82.9488 25.96C82.6288 26.32 82.4688 26.8333 82.4688 27.5V30.74C82.4688 31.4067 82.6288 31.92 82.9488 32.28C83.2688 32.64 83.7155 32.82 84.2888 32.82C84.8622 32.82 85.3088 32.64 85.6288 32.28C85.9488 31.92 86.1088 31.4067 86.1088 30.74V27.48C86.1088 26.8133 85.9488 26.3067 85.6288 25.96C85.3088 25.6 84.8622 25.42 84.2888 25.42ZM94.6424 24C95.4824 24 96.1358 24.2867 96.6024 24.86C97.0691 25.4333 97.3024 26.26 97.3024 27.34V30.9C97.3024 31.94 97.0291 32.76 96.4824 33.36C95.9491 33.9467 95.2224 34.24 94.3024 34.24C93.9558 34.24 93.5824 34.1667 93.1824 34.02C92.7958 33.8867 92.4358 33.7267 92.1024 33.54V37.7H90.4024V24.24H92.0024V25.66C92.7358 24.5533 93.6158 24 94.6424 24ZM94.3024 25.52C93.9158 25.52 93.5224 25.6667 93.1224 25.96C92.7358 26.24 92.3958 26.6267 92.1024 27.12V32.02C92.3824 32.2467 92.6891 32.4267 93.0224 32.56C93.3691 32.68 93.6824 32.74 93.9624 32.74C95.0558 32.74 95.6024 32.0467 95.6024 30.66V27.58C95.6024 26.2067 95.1691 25.52 94.3024 25.52ZM104.135 24C104.975 24 105.628 24.2867 106.095 24.86C106.561 25.4333 106.795 26.26 106.795 27.34V30.9C106.795 31.94 106.521 32.76 105.975 33.36C105.441 33.9467 104.715 34.24 103.795 34.24C103.448 34.24 103.075 34.1667 102.675 34.02C102.288 33.8867 101.928 33.7267 101.595 33.54V37.7H99.8946V24.24H101.495V25.66C102.228 24.5533 103.108 24 104.135 24ZM103.795 25.52C103.408 25.52 103.015 25.6667 102.615 25.96C102.228 26.24 101.888 26.6267 101.595 27.12V32.02C101.875 32.2467 102.181 32.4267 102.515 32.56C102.861 32.68 103.175 32.74 103.455 32.74C104.548 32.74 105.095 32.0467 105.095 30.66V27.58C105.095 26.2067 104.661 25.52 103.795 25.52ZM111.087 24.24V34H109.387V24.24H111.087ZM110.227 20.3C110.587 20.3 110.86 20.38 111.047 20.54C111.247 20.7 111.347 20.9267 111.347 21.22V21.8C111.347 22.0933 111.247 22.32 111.047 22.48C110.86 22.6267 110.587 22.7 110.227 22.7C109.88 22.7 109.607 22.6267 109.407 22.48C109.22 22.32 109.127 22.0933 109.127 21.8V21.22C109.127 20.9267 109.22 20.7 109.407 20.54C109.607 20.38 109.88 20.3 110.227 20.3ZM118.139 24C118.992 24 119.646 24.2933 120.099 24.88C120.566 25.4533 120.799 26.2733 120.799 27.34V34H119.099V27.58C119.099 26.2467 118.666 25.58 117.799 25.58C117.412 25.58 117.019 25.7267 116.619 26.02C116.219 26.3133 115.872 26.7133 115.579 27.22V34H113.879V24.24H115.479V25.7C115.839 25.1533 116.239 24.7333 116.679 24.44C117.132 24.1467 117.619 24 118.139 24ZM126.806 24C127.392 24 127.926 24.0867 128.406 24.26L131.526 24.22V25.72L129.886 25.68C130.112 26.16 130.226 26.66 130.226 27.18V27.62C130.226 28.5933 129.926 29.38 129.326 29.98C128.726 30.5667 127.886 30.86 126.806 30.86C126.112 30.86 125.546 30.7933 125.106 30.66C124.812 30.9 124.666 31.1733 124.666 31.48V31.6C124.666 31.8133 124.732 31.9733 124.866 32.08C124.999 32.1733 125.259 32.2333 125.646 32.26L128.626 32.48C129.239 32.5333 129.732 32.7667 130.106 33.18C130.492 33.58 130.686 34.0867 130.686 34.7V35.44C130.686 36.0133 130.572 36.48 130.346 36.84C130.119 37.2 129.699 37.4733 129.086 37.66C128.486 37.8467 127.619 37.94 126.486 37.94C126.059 37.94 125.552 37.8933 124.966 37.8C124.392 37.7067 123.846 37.5867 123.326 37.44L123.386 35.86C124.626 36.2733 125.679 36.48 126.546 36.48C127.266 36.48 127.799 36.4333 128.146 36.34C128.506 36.26 128.739 36.1333 128.846 35.96C128.966 35.7867 129.026 35.5267 129.026 35.18V35.02C129.026 34.7133 128.939 34.4733 128.766 34.3C128.606 34.1267 128.372 34.0333 128.066 34.02L125.066 33.82C124.426 33.78 123.939 33.6 123.606 33.28C123.272 32.96 123.106 32.5267 123.106 31.98V31.58C123.106 31.2867 123.179 31 123.326 30.72C123.486 30.44 123.712 30.1933 124.006 29.98C123.779 29.7267 123.612 29.4067 123.506 29.02C123.412 28.62 123.366 28.1333 123.366 27.56V27.12C123.366 26.1733 123.659 25.42 124.246 24.86C124.832 24.2867 125.686 24 126.806 24ZM126.806 25.42C126.246 25.42 125.812 25.5667 125.506 25.86C125.212 26.14 125.066 26.5467 125.066 27.08V27.74C125.066 28.2333 125.106 28.6 125.186 28.84C125.279 29.0667 125.439 29.2267 125.666 29.32C125.892 29.4 126.232 29.44 126.686 29.44C127.299 29.44 127.759 29.2933 128.066 29C128.372 28.7067 128.526 28.2867 128.526 27.74V27.14C128.526 26.58 128.446 26.0933 128.286 25.68C128.126 25.6133 127.906 25.5533 127.626 25.5C127.359 25.4467 127.086 25.42 126.806 25.42ZM139.691 24C140.838 24 141.671 24.26 142.191 24.78C142.724 25.2867 142.991 26.1 142.991 27.22V34H141.371V32.44C140.598 33.64 139.724 34.24 138.751 34.24C137.978 34.24 137.358 33.9733 136.891 33.44C136.438 32.9067 136.211 32.18 136.211 31.26V30.7C136.211 29.9 136.484 29.24 137.031 28.72C137.578 28.1867 138.311 27.92 139.231 27.92C139.738 27.92 140.424 28.0067 141.291 28.18V27.08C141.291 26.5067 141.158 26.0933 140.891 25.84C140.638 25.5867 140.238 25.46 139.691 25.46C139.051 25.46 138.151 25.56 136.991 25.76V24.3C138.244 24.1 139.144 24 139.691 24ZM139.651 29.24C139.091 29.24 138.664 29.3867 138.371 29.68C138.078 29.9733 137.931 30.3867 137.931 30.92V31.14C137.931 31.6333 138.044 32.02 138.271 32.3C138.498 32.58 138.784 32.72 139.131 32.72C139.491 32.72 139.858 32.5667 140.231 32.26C140.618 31.94 140.971 31.4933 141.291 30.92V29.38C140.784 29.2867 140.238 29.24 139.651 29.24ZM147.395 20.34V34H145.695V20.34H147.395ZM153.508 24C154.694 24 155.574 24.32 156.148 24.96C156.734 25.5867 157.028 26.48 157.028 27.64V30.6C157.028 31.76 156.734 32.66 156.148 33.3C155.574 33.9267 154.694 34.24 153.508 34.24C152.321 34.24 151.434 33.9267 150.848 33.3C150.274 32.66 149.988 31.76 149.988 30.6V27.64C149.988 26.48 150.274 25.5867 150.848 24.96C151.434 24.32 152.321 24 153.508 24ZM153.508 25.42C152.934 25.42 152.488 25.6 152.168 25.96C151.848 26.32 151.688 26.8333 151.688 27.5V30.74C151.688 31.4067 151.848 31.92 152.168 32.28C152.488 32.64 152.934 32.82 153.508 32.82C154.081 32.82 154.528 32.64 154.848 32.28C155.168 31.92 155.328 31.4067 155.328 30.74V27.48C155.328 26.8133 155.168 26.3067 154.848 25.96C154.528 25.6 154.081 25.42 153.508 25.42ZM163.881 24C164.735 24 165.388 24.2933 165.841 24.88C166.308 25.4533 166.541 26.2733 166.541 27.34V34H164.841V27.58C164.841 26.2467 164.408 25.58 163.541 25.58C163.155 25.58 162.761 25.7267 162.361 26.02C161.961 26.3133 161.615 26.7133 161.321 27.22V34H159.621V24.24H161.221V25.7C161.581 25.1533 161.981 24.7333 162.421 24.44C162.875 24.1467 163.361 24 163.881 24ZM172.548 24C173.668 24 174.521 24.3067 175.108 24.92C175.694 25.5333 175.988 26.42 175.988 27.58V29.64H170.848V30.82C170.848 31.5 171.008 31.9933 171.328 32.3C171.661 32.5933 172.181 32.74 172.888 32.74C173.581 32.74 174.448 32.6333 175.488 32.42L175.528 33.9C174.288 34.1267 173.401 34.24 172.868 34.24C171.548 34.24 170.594 33.9533 170.008 33.38C169.434 32.8067 169.148 31.92 169.148 30.72V27.58C169.148 26.42 169.428 25.5333 169.988 24.92C170.561 24.3067 171.414 24 172.548 24ZM172.548 25.42C172.028 25.42 171.614 25.5867 171.308 25.92C171.001 26.24 170.848 26.7067 170.848 27.32V28.28H174.288V27.38C174.288 26.74 174.128 26.2533 173.808 25.92C173.501 25.5867 173.081 25.42 172.548 25.42ZM179.113 31.8C179.873 31.8 180.253 32.1133 180.253 32.74V33.32C180.253 33.6133 180.153 33.84 179.953 34C179.766 34.16 179.486 34.24 179.113 34.24C178.753 34.24 178.473 34.16 178.273 34C178.086 33.84 177.993 33.6133 177.993 33.32V32.74C177.993 32.4333 178.086 32.2 178.273 32.04C178.473 31.88 178.753 31.8 179.113 31.8Z" fill="#42FF00"/>
</svg>
